<?xml version="1.0" encoding="UTF-8"?>
<svg version="1.1" xmlns="http://www.w3.org/2000/svg" width="500" height="500">
<path d="M0 0 C13.53 0 27.06 0 41 0 C46 12 46 12 47 17 C44.36 17.66 41.72 18.32 39 19 C38.4225 17.88625 37.845 16.7725 37.25 15.625 C35.630869 12.50239022 34.33281972 11.20351823 31 10 C28.9257375 9.71519194 26.83928561 9.51125776 24.75 9.375 C23.67234375 9.30023438 22.5946875 9.22546875 21.484375 9.1484375 C20.66453125 9.09945312 19.8446875 9.05046875 19 9 C19 12.63 19 16.26 19 20 C20.98 19.67 22.96 19.34 25 19 C25 17.02 25 15.04 25 13 C27.64 13 30.28 13 33 13 C33 20.26 33 27.52 33 35 C30.36 35 27.72 35 25 35 C25 32.69 25 30.38 25 28 C23.02 28 21.04 28 19 28 C19 31.96 19 35.92 19 40 C21.06326977 39.91239411 23.1256716 39.80420727 25.1875 39.6875 C26.33605469 39.62949219 27.48460937 39.57148438 28.66796875 39.51171875 C32.23466487 38.9639612 34.16073913 38.19942743 37 36 C38.41455894 34.0062203 38.41455894 34.0062203 39.3125 31.8125 C39.80169922 30.73935547 39.80169922 30.73935547 40.30078125 29.64453125 C40.53152344 29.10183594 40.76226562 28.55914062 41 28 C43.64 28.66 46.28 29.32 49 30 C48.56766547 31.66801405 48.12880988 33.33433808 47.6875 35 C47.44386719 35.928125 47.20023437 36.85625 46.94921875 37.8125 C45.82051835 41.6027038 44.38858598 45.29710405 43 49 C28.81 49 14.62 49 0 49 C0 46.69 0 44.38 0 42 C2.97 41.505 2.97 41.505 6 41 C5.67 30.44 5.34 19.88 5 9 C3.35 8.67 1.7 8.34 0 8 C0 5.36 0 2.72 0 0 Z " fill="#FFFFFF" transform="translate(255,219)"/>
<path d="M0 0 C0.33 -0.33 0.66 -0.66 1 -1 C2.99958364 -1.04080783 5.00045254 -1.04254356 7 -1 C7.67321284 1.24805002 8.33834123 3.49852224 9 5.75 C9.37125 7.00296875 9.7425 8.2559375 10.125 9.546875 C11 13 11 13 11 17 C7.04 17.495 7.04 17.495 3 18 C2.29875 16.906875 1.5975 15.81375 0.875 14.6875 C-1.6843187 11.15592615 -3.75933465 9.38637136 -8 8 C-11.01978753 7.78217926 -13.97938973 7.81876338 -17 8 C-16.83411144 10.45202739 -16.83411144 10.45202739 -16 13 C-14.1367032 14.26159075 -14.1367032 14.26159075 -11.73828125 14.87890625 C-10.86623047 15.16056641 -9.99417969 15.44222656 -9.09570312 15.73242188 C-8.17724609 16.00634766 -7.25878906 16.28027344 -6.3125 16.5625 C7.98698465 20.98047698 7.98698465 20.98047698 11.875 26.8125 C13.37450182 31.06108848 13.91578763 34.53720388 12.30859375 38.859375 C9.57831678 44.2056914 5.72113841 47.09295386 0 49 C-6.95066551 49.40389002 -13.43434692 49.4430337 -20 47 C-20.495 47.495 -20.495 47.495 -21 48 C-23.33297433 48.04092937 -25.66705225 48.04241723 -28 48 C-28.50314563 45.22970414 -29.00263838 42.4588348 -29.5 39.6875 C-29.64308594 38.90181641 -29.78617188 38.11613281 -29.93359375 37.30664062 C-30.06894531 36.54931641 -30.20429688 35.79199219 -30.34375 35.01171875 C-30.46943359 34.31522217 -30.59511719 33.61872559 -30.72460938 32.90112305 C-31 31 -31 31 -31 28 C-27.04 27.505 -27.04 27.505 -23 27 C-22.72027344 27.53109375 -22.44054687 28.0621875 -22.15234375 28.609375 C-19.30578226 33.62518111 -16.66073494 37.24012795 -11 39 C-7.18441944 39.43230716 -3.48984793 39.74492396 0 38 C0 36.68 0 35.36 0 34 C-1.23363281 33.52820313 -1.23363281 33.52820313 -2.4921875 33.046875 C-4.81644056 32.15582186 -7.13928488 31.26108809 -9.4609375 30.36328125 C-11.60748365 29.53641083 -13.75762331 28.71868411 -15.9140625 27.91796875 C-21.41372679 25.8327486 -26.12032139 23.99039778 -29.375 18.8125 C-30.53159582 13.60781882 -30.01196048 8.8974259 -27.5 4.1875 C-19.18986188 -3.08387086 -10.07177822 -3.42869046 0 0 Z " fill="#FFFFFF" transform="translate(239,220)"/>
<path d="M0 0 C0.99 0.66 1.98 1.32 3 2 C2.70737625 8.7303463 -0.07530648 13.59920494 -4 19 C-4.86882812 19.7528125 -5.73765625 20.505625 -6.6328125 21.28125 C-9.79855554 24.9171529 -9.87128605 27.69356842 -10.125 32.375 C-10.95054672 45.00363367 -10.95054672 45.00363367 -15.7109375 49.68115234 C-18.74249652 51.42779076 -20.83393832 51.33034277 -24.3203125 51.25 C-25.56329102 51.22292969 -26.80626953 51.19585937 -28.08691406 51.16796875 C-34.36053882 50.89867415 -40.615029 50.49019879 -46.875 50 C-48.14730469 49.90460938 -49.41960938 49.80921875 -50.73046875 49.7109375 C-53.82069542 49.47858963 -56.91048215 49.24155931 -60 49 C-60.66 50.32 -61.32 51.64 -62 53 C-62.66 53 -63.32 53 -64 53 C-64.18175781 52.32453125 -64.36351562 51.6490625 -64.55078125 50.953125 C-64.80214844 50.06109375 -65.05351563 49.1690625 -65.3125 48.25 C-65.55613281 47.36828125 -65.79976562 46.4865625 -66.05078125 45.578125 C-66.87935224 42.9478095 -66.87935224 42.9478095 -68.60546875 40.859375 C-70 39 -70 39 -70 36 C-67.03 36 -64.06 36 -61 36 C-61 34.35 -61 32.7 -61 31 C-60.01 30.67 -59.02 30.34 -58 30 C-58 31.98 -58 33.96 -58 36 C-40.84264933 37.64395978 -40.84264933 37.64395978 -23.625 38.25 C-22.50375732 38.26353516 -22.50375732 38.26353516 -21.35986328 38.27734375 C-17.22471489 38.37330675 -17.22471489 38.37330675 -14 36 C-13.53837573 33.56747339 -13.53837573 33.56747339 -13.375 30.875 C-13.30023438 29.96492188 -13.22546875 29.05484375 -13.1484375 28.1171875 C-13.09945312 27.41851562 -13.05046875 26.71984375 -13 26 C-13.99 26.33 -14.98 26.66 -16 27 C-27.34013761 27.9274462 -41.95980121 28.66709808 -51.78125 22.15625 C-54.78435364 19.23774083 -54.95722986 17.42601142 -55.2109375 13.38671875 C-54.77680184 8.47455419 -52.44275112 4.44275112 -49 1 C-46.375 0.875 -46.375 0.875 -44 1 C-44.33 3.31 -44.66 5.62 -45 8 C-46.98 8.33 -48.96 8.66 -51 9 C-51 9.99 -51 10.98 -51 12 C-42.76972488 13.76927219 -34.70772704 14.24227531 -26.3125 14.3125 C-24.87088501 14.33860352 -24.87088501 14.33860352 -23.40014648 14.36523438 C-16.96563668 14.36082378 -10.88685277 13.78372793 -5 11 C-3.0616043 8.94214827 -3.0616043 8.94214827 -2.4375 6.4375 C-2.16808594 5.65246094 -1.89867188 4.86742187 -1.62109375 4.05859375 C-1.41613281 3.37925781 -1.21117188 2.69992188 -1 2 C-0.67 1.34 -0.34 0.68 0 0 Z " fill="#FFFFFF" transform="translate(91,181)"/>
<path d="M0 0 C7.16721582 -0.66363109 11.93443348 1.18055623 18 5 C18.9075 5.9075 19.815 6.815 20.75 7.75 C25.2340572 10.85434729 29.08858857 10.55819192 34.44140625 10.7734375 C39.99379253 11.12693739 45.87089692 11.64328679 49.75390625 15.94140625 C51.61591457 20.51179032 51.35562643 24.80267785 51.25 29.6875 C51.23356445 31.20452515 51.23356445 31.20452515 51.21679688 32.75219727 C51.08526595 41.84999149 50.63448493 50.92459945 50 60 C51.32 60.33 52.64 60.66 54 61 C54 61.66 54 62.32 54 63 C53.31292969 63.25394531 52.62585938 63.50789063 51.91796875 63.76953125 C51.01691406 64.11371094 50.11585938 64.45789063 49.1875 64.8125 C48.29417969 65.14894531 47.40085938 65.48539062 46.48046875 65.83203125 C44.08075928 66.96197319 42.71576647 68.01062293 41 70 C40.01 69.67 39.02 69.34 38 69 C38 66.36 38 63.72 38 61 C36.824375 61.0928125 36.824375 61.0928125 35.625 61.1875 C34.75875 61.125625 33.8925 61.06375 33 61 C32.34 60.01 31.68 59.02 31 58 C32.98 58 34.96 58 37 58 C37.96799592 53.15667095 38.13122086 48.45861984 38.09765625 43.5390625 C38.0962413 42.74849457 38.09482635 41.95792664 38.09336853 41.1434021 C38.08780504 38.63722834 38.07525944 36.13114642 38.0625 33.625 C38.05748028 31.91797005 38.0529182 30.21093868 38.04882812 28.50390625 C38.03784759 24.33590252 38.02060839 20.16796679 38 16 C35.56612247 14.78306124 33.58161154 14.68040104 30.875 14.4375 C29.96492188 14.35371094 29.05484375 14.26992188 28.1171875 14.18359375 C27.06917969 14.09271484 27.06917969 14.09271484 26 14 C26.144375 14.57105469 26.28875 15.14210938 26.4375 15.73046875 C29.16796195 27.65727823 28.93987238 40.02034641 24.6875 51.5625 C22.60795391 54.5662888 21.57916516 55.28416697 18 56 C12.65930571 55.74568122 8.53771919 55.02514613 4 52 C2.625 49.3125 2.625 49.3125 2 47 C3 46 3 46 6.0625 45.9375 C7.031875 45.958125 8.00125 45.97875 9 46 C9.268125 46.969375 9.53625 47.93875 9.8125 48.9375 C10.204375 49.948125 10.59625 50.95875 11 52 C11.99 52.33 12.98 52.66 14 53 C15.70400489 41.2849664 18.52553095 17.11816814 11 7 C8.38445246 5.43766683 8.38445246 5.43766683 5.375 4.25 C4.37210938 3.82203125 3.36921875 3.3940625 2.3359375 2.953125 C1.56507813 2.63859375 0.79421875 2.3240625 0 2 C0 1.34 0 0.68 0 0 Z " fill="#FFFFFF" transform="translate(184,406)"/>
<path d="M0 0 C2.87110893 0.30761881 3.96268285 0.96381367 6.0625 3 C9.56607291 8.42488708 11.04248237 13.56433129 11.0625 20 C11.30126631 23.50009711 11.76092962 24.73344525 14.140625 27.38671875 C15.91962728 28.91863738 17.71938615 30.42678112 19.5390625 31.91015625 C22.89451565 34.75962837 24.40494119 36.89842019 26 41 C25.86458147 47.36467088 23.71664239 50.21114847 19.4375 54.5 C18.89391846 55.06605957 18.35033691 55.63211914 17.7902832 56.21533203 C13.73355956 60.39273074 9.44914518 64.24633147 5 68 C-0.47869558 72.43607701 -0.47869558 72.43607701 -2.4375 78.9375 C-2.293125 79.948125 -2.14875 80.95875 -2 82 C-3.08667969 81.58427734 -3.08667969 81.58427734 -4.1953125 81.16015625 C-11.42755647 78.44378773 -11.42755647 78.44378773 -19 77 C-18.43628586 73.73045798 -17.50037734 72.17424117 -15 70 C-15.33 69.401875 -15.66 68.80375 -16 68.1875 C-17 66 -17 66 -17 63 C-14.53199953 64.15173355 -12.95216435 65.04783565 -11 67 C-7.1602499 63.25922234 -3.33390103 59.50542067 0.48071289 55.73901367 C1.77985825 54.45996738 3.08257323 53.18453618 4.38891602 51.9128418 C6.26751654 50.08283193 8.13283907 48.24014751 9.99609375 46.39453125 C10.58152451 45.82974564 11.16695526 45.26496002 11.77012634 44.68305969 C14.81893714 41.63595314 16.9028046 39.43211039 17 35 C15.84368196 32.90860955 15.84368196 32.90860955 14.0625 31.1875 C13.49660156 30.58292969 12.93070313 29.97835938 12.34765625 29.35546875 C11.90292969 28.90816406 11.45820312 28.46085937 11 28 C10.18595703 29.03833984 10.18595703 29.03833984 9.35546875 30.09765625 C-8.20113243 51.73041691 -8.20113243 51.73041691 -18.6875 53.4375 C-23.33423793 52.8237799 -25.93026844 50.44949217 -29 47 C-31.25409934 43.28736579 -31.16599249 40.31580463 -31 36 C-29.1875 35.3125 -29.1875 35.3125 -27 35 C-25.25 36.4375 -25.25 36.4375 -24 38 C-24.33 38.99 -24.66 39.98 -25 41 C-25.66 41 -26.32 41 -27 41 C-26.67 42.65 -26.34 44.3 -26 46 C-20.86036513 44.51221096 -17.88712 41.34803231 -14.25 37.625 C-13.33009277 36.69095337 -13.33009277 36.69095337 -12.39160156 35.73803711 C-1.67560554 24.83881562 -1.67560554 24.83881562 4 11 C3.42314192 8.40232933 3.42314192 8.40232933 2.125 6.1875 C0 2.09933775 0 2.09933775 0 0 Z " fill="#FFFFFF" transform="translate(89,315)"/>
<path d="M0 0 C0.99 0.33 1.98 0.66 3 1 C2.67 3.64 2.34 6.28 2 9 C4.97 9.495 4.97 9.495 8 10 C8 10.99 8 11.98 8 13 C5.03 12.505 5.03 12.505 2 12 C1.41970074 16.05129139 0.85061003 20.10399874 0.29101562 24.15820312 C0.09993698 25.53166106 -0.09398301 26.9047273 -0.29101562 28.27734375 C-1.52447393 36.8863793 -2.29564666 45.2907422 -2 54 C1.6837622 55.54379132 5.03564468 56.44683414 9 57 C8.96519531 55.79085937 8.93039062 54.58171875 8.89453125 53.3359375 C8.35229236 26.34295378 8.35229236 26.34295378 16 18 C18.76216172 15.73108144 20.21468563 16.00692534 23.875 16.125 C28.92846628 16.90753302 32.42005089 19.42005089 36 23 C36 24.32 36 25.64 36 27 C33 28 33 28 30.875 27.375 C29 26 29 26 28.25 23.375 C28.1675 22.59125 28.085 21.8075 28 21 C27.01 20.67 26.02 20.34 25 20 C22.80046321 29.75389826 21.70028659 39.1748019 21.6875 49.1875 C21.68234375 50.16662354 21.6771875 51.14574707 21.671875 52.15454102 C21.70938988 59.30868649 21.70938988 59.30868649 24 66 C26.34489621 67.77278457 26.34489621 67.77278457 29.125 68.875 C30.03507812 69.28492187 30.94515625 69.69484375 31.8828125 70.1171875 C32.58148438 70.40851563 33.28015625 70.69984375 34 71 C34 71.66 34 72.32 34 73 C27.49800033 73.69170209 23.24940296 71.84102655 18 68 C16.70500273 66.60538755 15.43412486 65.18801539 14.1875 63.75 C10.9229502 60.27127497 8.87846522 59.49283347 4.125 59.25 C3.10792969 59.23066406 2.09085937 59.21132812 1.04296875 59.19140625 C-4.38964623 58.84968849 -9.81921402 57.1090496 -13.78125 53.27734375 C-15.47864141 50.10561557 -15.20981665 47.95730633 -14.9375 44.375 C-14.88730713 43.70855469 -14.83711426 43.04210937 -14.78540039 42.35546875 C-13.81423743 31.17163035 -11.82338486 20.06955534 -10 9 C-11.32 8.67 -12.64 8.34 -14 8 C-14 7.34 -14 6.68 -14 6 C-13.07316406 5.65066406 -12.14632813 5.30132812 -11.19140625 4.94140625 C-9.99386719 4.48636719 -8.79632813 4.03132813 -7.5625 3.5625 C-6.36753906 3.11003906 -5.17257812 2.65757813 -3.94140625 2.19140625 C-1.15554277 1.2855174 -1.15554277 1.2855174 0 0 Z " fill="#FFFFFF" transform="translate(287,27)"/>
<path d="M0 0 C0.66 0 1.32 0 2 0 C2.39832031 1.03060547 2.39832031 1.03060547 2.8046875 2.08203125 C3.15789062 2.98308594 3.51109375 3.88414062 3.875 4.8125 C4.22304688 5.70582031 4.57109375 6.59914063 4.9296875 7.51953125 C5.98832155 10.17711591 5.98832155 10.17711591 8 13 C8 13.99 8 14.98 8 16 C4.04 16.495 4.04 16.495 0 17 C-0.66 18.65 -1.32 20.3 -2 22 C-2.66 22 -3.32 22 -4 22 C-3.67 19.69 -3.34 17.38 -3 15 C-4.23234375 14.93941406 -5.4646875 14.87882812 -6.734375 14.81640625 C-21.78391903 14.05935935 -21.78391903 14.05935935 -28.5 13.4375 C-32.3751984 13.10456042 -36.23637892 12.85550522 -40.125 12.75 C-41.01445312 12.72421875 -41.90390625 12.6984375 -42.8203125 12.671875 C-43.53960937 12.78015625 -44.25890625 12.8884375 -45 13 C-47.02350324 16.03525486 -47.32124018 17.19426202 -47.625 20.6875 C-47.69976562 21.49574219 -47.77453125 22.30398438 -47.8515625 23.13671875 C-47.90054687 23.75160156 -47.94953125 24.36648438 -48 25 C-47.01 24.67 -46.02 24.34 -45 24 C-33.51537068 23.33718011 -20.67058337 23.20956831 -10.1875 28.625 C-7.44917556 31.59803796 -6.95798114 33.63052943 -6.75390625 37.61328125 C-7.26016735 42.52321037 -9.54804758 46.54804758 -13 50 C-15.625 50.125 -15.625 50.125 -18 50 C-18.1875 47.625 -18.1875 47.625 -18 45 C-15 43 -15 43 -12.875 42.5625 C-12.25625 42.376875 -11.6375 42.19125 -11 42 C-10.67 41.01 -10.34 40.02 -10 39 C-19.17684391 37.52749783 -28.20605845 36.7689571 -37.5 36.6875 C-38.41861816 36.67009766 -39.33723633 36.65269531 -40.28369141 36.63476562 C-46.19613859 36.63906637 -50.69774734 37.29022043 -56 40 C-57.97074124 42.39167425 -57.97074124 42.39167425 -59 45.1875 C-59.391875 46.08855469 -59.78375 46.98960937 -60.1875 47.91796875 C-60.455625 48.60503906 -60.72375 49.29210937 -61 50 C-61.99 49.67 -62.98 49.34 -64 49 C-63.74126108 41.88467957 -61.46435325 37.50142646 -57 32 C-55.71029297 30.93652344 -55.71029297 30.93652344 -54.39453125 29.8515625 C-51.01997773 25.83292618 -50.91743715 22.17066823 -50.4375 17.0625 C-49.26871519 5.22747156 -49.26871519 5.22747156 -45 1 C-41.9563391 0.46061705 -39.77346165 0.33475957 -36.75 0.5 C-35.53123169 0.53287109 -35.53123169 0.53287109 -34.2878418 0.56640625 C-23.50480156 0.93840951 -12.73615644 1.96346262 -2 3 C-1.34 2.01 -0.68 1.02 0 0 Z " fill="#FFFFFF" transform="translate(471,271)"/>
<path d="M0 0 C0.66 0.33 1.32 0.66 2 1 C1.67 2.32 1.34 3.64 1 5 C-0.65 5.33 -2.3 5.66 -4 6 C-4 5.34 -4 4.68 -4 4 C-5.65 4 -7.3 4 -9 4 C-7.39814164 15.47331053 5.81545895 26.33381745 14.17578125 33.625 C17.42130753 36.07130675 19.18326509 37.06164037 23.3125 36.75 C26.96398452 36.00732518 30.43984923 35.08984207 34 34 C32.56787616 38.60107873 32.56787616 38.60107873 30.109375 40.328125 C24.90865235 42.36019544 20.66386803 43.13204091 15.0625 43.1875 C7.96828983 43.47312108 4.53814489 45.93996724 -0.5 50.7734375 C-3.94489989 53.84155146 -7.39686521 55.61664168 -11.875 56.6875 C-21.04895293 54.66923036 -28.34621756 41.75414708 -33.515625 34.47265625 C-34.1655542 33.57776489 -34.1655542 33.57776489 -34.82861328 32.66479492 C-35.67711658 31.49334903 -36.50963307 30.31011424 -37.32373047 29.11450195 C-38.61741855 27.25441231 -38.61741855 27.25441231 -41 25 C-44.20618399 24.50794161 -44.20618399 24.50794161 -47 25 C-46.21960798 21.09803989 -44.56949047 17.64121788 -43 14 C-42.31163487 12.00736409 -41.63718601 10.00958663 -41 8 C-36.125 10.75 -36.125 10.75 -35 13 C-32.69 12.34 -30.38 11.68 -28 11 C-28 11.99 -28 12.98 -28 14 C-30 15.6875 -30 15.6875 -32 17 C-27.96921404 21.91509557 -23.92715243 26.82070186 -19.87744141 31.72021484 C-18.16288871 33.80220354 -16.4607403 35.893619 -14.76171875 37.98828125 C-13.79986527 39.15917144 -12.83764891 40.32976368 -11.875 41.5 C-11.43889404 42.04487061 -11.00278809 42.58974121 -10.5534668 43.15112305 C-8.79899202 45.26575394 -7.410199 46.82409349 -4.859375 47.91796875 C-1.88039907 48.04939416 -0.31799107 46.76899319 2 45 C3.14826095 42.94896026 3.14826095 42.94896026 4 41 C3.29037109 40.43345703 3.29037109 40.43345703 2.56640625 39.85546875 C-6.08794684 32.65194288 -14.89376282 23.50346997 -18 12.4375 C-18 7.991973 -16.92880577 6.30429369 -14 3 C-9.23651851 -0.24782829 -5.57335568 -0.37155705 0 0 Z " fill="#FFFFFF" transform="translate(158,56)"/>
<path d="M0 0 C2.61497941 0.44828218 4.92344056 0.96776444 7.375 2 C10.55617053 3.21187449 13.62924226 3.60344027 17 4 C16.43628586 7.26954202 15.50037734 8.82575883 13 11 C13.495 11.8971875 13.495 11.8971875 14 12.8125 C15 15 15 15 15 18 C13.68 17.34 12.36 16.68 11 16 C11 15.34 11 14.68 11 14 C4.38386055 18.54079382 -1.33253942 23.92852359 -7.00292969 29.57739258 C-8.5132238 31.07561813 -10.04125823 32.55415781 -11.5703125 34.03320312 C-12.53759691 34.99103906 -13.50378454 35.94998415 -14.46875 36.91015625 C-15.77489258 38.19611694 -15.77489258 38.19611694 -17.10742188 39.50805664 C-19.19245001 41.83937866 -19.19245001 41.83937866 -19.39648438 44.64624023 C-18.83679393 47.96888531 -17.31921759 49.61451905 -15 52 C-14.01 52.33 -13.02 52.66 -12 53 C-11.15308594 51.68322266 -11.15308594 51.68322266 -10.2890625 50.33984375 C-4.20000964 41.22764831 4.9806784 30.10670224 16.25 27.75 C21.13021061 28.07534737 22.72879201 29.4244936 26 33 C28.64852127 37.14934998 29.34989262 40.10150337 29 45 C27.68 45.66 26.36 46.32 25 47 C23.5 45.6875 23.5 45.6875 22 44 C22 43.01 22 42.02 22 41 C22.66 40.67 23.32 40.34 24 40 C24 38.68 24 37.36 24 36 C14.36062585 37.47115733 5.0769972 50.69394719 -1 58 C-4.14270059 62.30369826 -6 65.35467603 -6 70.75 C-5.02932094 73.90470694 -3.80367842 76.25527197 -2 79 C-2 79.66 -2 80.32 -2 81 C-6.54404174 80.47480925 -6.54404174 80.47480925 -8.51171875 78.42578125 C-11.23178227 73.53689633 -12.24757212 69.65936022 -12.6875 64.0625 C-13.4746114 56.83042693 -16.25079144 53.88669051 -21.57421875 49.171875 C-24.81024428 46.2745639 -26.40123676 44.0349739 -28 40 C-28.26386978 35.16238744 -26.95817832 32.5957157 -23.9375 29 C-20.93528339 25.81583087 -17.72098934 22.96658591 -14.40234375 20.12109375 C-11.17821167 17.27442103 -8.03946032 14.35399898 -4.9375 11.375 C-4.34050293 10.82432861 -3.74350586 10.27365723 -3.12841797 9.70629883 C-1.2348621 7.92907147 -1.2348621 7.92907147 1 5 C1.03940285 2.16947702 1.03940285 2.16947702 0 0 Z " fill="#FFFFFF" transform="translate(419,111)"/>
<path d="M0 0 C3.65373401 2.48764868 6.33852446 5.32715814 9.21875 8.65625 C9.83161865 9.36007812 10.4444873 10.06390625 11.07592773 10.7890625 C11.71087158 11.51867187 12.34581543 12.24828125 13 13 C15.49456172 15.85797983 18.01759626 18.68680037 20.5625 21.5 C21.51286133 22.59054687 21.51286133 22.59054687 22.48242188 23.703125 C26.20518049 27.93494465 26.20518049 27.93494465 31.46484375 29.46875 C32.30144531 29.3140625 33.13804687 29.159375 34 29 C33.70351563 29.69480469 33.40703125 30.38960938 33.1015625 31.10546875 C31.94421163 34.14659284 31.13934996 37.15087063 30.375 40.3125 C30.11460937 41.38113281 29.85421875 42.44976562 29.5859375 43.55078125 C29.29589844 44.76314453 29.29589844 44.76314453 29 46 C25.64405806 44.7367158 23.36709704 43.74084921 21 41 C19.35 41.99 17.7 42.98 16 44 C15.67 43.01 15.34 42.02 15 41 C16.32 40.01 17.64 39.02 19 38 C18.28714844 37.2265625 17.57429688 36.453125 16.83984375 35.65625 C15.87215294 34.60439007 14.90472318 33.55228994 13.9375 32.5 C13.43234863 31.95045654 12.92719727 31.40091309 12.40673828 30.8347168 C9.68385296 27.86425689 6.99924463 24.87101679 4.375 21.8125 C3.25526636 20.53702403 2.12994011 19.26644294 1 18 C0.26910156 17.17886719 -0.46179688 16.35773438 -1.21484375 15.51171875 C-2.37693359 14.26841797 -2.37693359 14.26841797 -3.5625 13 C-4.26503906 12.236875 -4.96757812 11.47375 -5.69140625 10.6875 C-7.94626042 8.76692482 -7.94626042 8.76692482 -11.06640625 8.53125 C-14.50886963 9.08131073 -15.31981042 9.75974722 -17.375 12.5 C-17.87773437 13.1496875 -18.38046875 13.799375 -18.8984375 14.46875 C-19.26195312 14.9740625 -19.62546875 15.479375 -20 16 C-19.26394531 16.2578125 -18.52789062 16.515625 -17.76953125 16.78125 C-8.41038366 20.89980296 -1.22244262 30.76353073 4 39.25 C5.19381433 42.53298941 5.57721639 44.53670166 5 48 C1.77341395 52.98654207 -1.17484954 55.26267442 -7 57 C-10.4375 56.6875 -10.4375 56.6875 -13 56 C-13.495 54.02 -13.495 54.02 -14 52 C-11 50 -11 50 -8 50 C-7.67 50.66 -7.34 51.32 -7 52 C-5.68 52 -4.36 52 -3 52 C-4.4891402 43.47128794 -12.97005146 36.83516019 -19 31.125 C-19.56871826 30.57787354 -20.13743652 30.03074707 -20.72338867 29.46704102 C-25.67458248 24.89101244 -30.80212901 20.8934043 -37.75 21.125 C-40.46147971 21.85501377 -42.55117369 22.68812876 -45 24 C-45.99 24 -46.98 24 -48 24 C-46.48397692 19.75513537 -43.83910839 18.17308022 -40 16 C-36.75771907 14.79209142 -33.93528749 13.99568329 -30.4609375 14.01171875 C-25.79655784 13.9920101 -23.00992275 13.80967945 -19.28125 10.8203125 C-17.60100147 9.0742711 -15.96526047 7.2838178 -14.38671875 5.4453125 C-10.29564112 1.25379925 -5.87755755 -0.97959292 0 0 Z " fill="#FFFFFF" transform="translate(363,387)"/>
<path d="M0 0 C1.65322266 0.01740234 1.65322266 0.01740234 3.33984375 0.03515625 C4.44457031 0.04417969 5.54929687 0.05320313 6.6875 0.0625 C7.54214844 0.07410156 8.39679688 0.08570313 9.27734375 0.09765625 C10.36138993 2.80777171 11.44533479 5.51792712 12.52880859 8.22827148 C13.44661043 10.52147098 14.36621558 12.81394955 15.28759766 15.10571289 C17.27906474 20.06465613 19.2665657 25.02118577 21.13671875 30.02734375 C21.39888184 30.71884521 21.66104492 31.41034668 21.93115234 32.12280273 C22.60573686 33.91157067 23.26628844 35.70561313 23.92578125 37.5 C25.40217205 40.33757191 26.29400524 41.08839918 29.27734375 42.09765625 C29.27734375 44.40765625 29.27734375 46.71765625 29.27734375 49.09765625 C21.35734375 49.09765625 13.43734375 49.09765625 5.27734375 49.09765625 C5.27734375 46.78765625 5.27734375 44.47765625 5.27734375 42.09765625 C6.59734375 41.43765625 7.91734375 40.77765625 9.27734375 40.09765625 C8.94734375 38.11765625 8.61734375 36.13765625 8.27734375 34.09765625 C3.65734375 34.09765625 -0.96265625 34.09765625 -5.72265625 34.09765625 C-6.38265625 36.40765625 -7.04265625 38.71765625 -7.72265625 41.09765625 C-6.07265625 41.42765625 -4.42265625 41.75765625 -2.72265625 42.09765625 C-2.72265625 44.40765625 -2.72265625 46.71765625 -2.72265625 49.09765625 C-9.32265625 49.09765625 -15.92265625 49.09765625 -22.72265625 49.09765625 C-22.72265625 46.78765625 -22.72265625 44.47765625 -22.72265625 42.09765625 C-22.10009445 41.84585098 -21.47753265 41.59404572 -20.83610535 41.33460999 C-18.3236045 39.86410033 -17.90591522 38.99443733 -16.9074707 36.30639648 C-16.61068924 35.52896591 -16.31390778 34.75153534 -16.00813293 33.95054626 C-15.70380844 33.1109285 -15.39948395 32.27131073 -15.0859375 31.40625 C-14.76102829 30.54580582 -14.43611908 29.68536163 -14.10136414 28.79884338 C-13.06592043 26.04907693 -12.05001281 23.2925794 -11.03515625 20.53515625 C-10.00569106 17.7757675 -8.97232099 15.0178839 -7.93681335 12.26075745 C-7.29359756 10.54408384 -6.65466703 8.82579761 -6.02033997 7.1058197 C-3.42910154 0.12299503 -3.42910154 0.12299503 0 0 Z M0.27734375 17.09765625 C-0.71265625 20.06765625 -1.70265625 23.03765625 -2.72265625 26.09765625 C-0.08265625 26.09765625 2.55734375 26.09765625 5.27734375 26.09765625 C4.28734375 23.12765625 3.29734375 20.15765625 2.27734375 17.09765625 C1.61734375 17.09765625 0.95734375 17.09765625 0.27734375 17.09765625 Z " fill="#FFFFFF" transform="translate(325.72265625,218.90234375)"/>
<path d="M0 0 C0.66 0 1.32 0 2 0 C2.34611328 0.77923828 2.34611328 0.77923828 2.69921875 1.57421875 C4.89046367 6.25984524 7.20160916 9.40692758 11 13 C11.495 14.485 11.495 14.485 12 16 C9.69 16 7.38 16 5 16 C5.495 18.97 5.495 18.97 6 22 C5.01 22 4.02 22 3 22 C2.34 20.02 1.68 18.04 1 16 C-3.67686556 15.56754616 -8.35418467 15.14051304 -13.03198242 14.71826172 C-14.61967976 14.57420393 -16.20724892 14.42872548 -17.79467773 14.28173828 C-29.87491865 13.15558605 -29.87491865 13.15558605 -42 13 C-41.48792856 16.75519057 -40.7824918 19.66688525 -39 23 C-37.081875 22.938125 -37.081875 22.938125 -35.125 22.875 C-19.05046089 22.92060153 -0.95902986 24.14798607 11 36 C13.70459857 39.44221637 14.3733312 41.64446939 14 46 C10.60268371 48.09065618 7.95730595 48.42098999 4 48 C2.125 46.6875 2.125 46.6875 1 45 C1 44.01 1 43.02 1 42 C3.64 41.67 6.28 41.34 9 41 C8.67 40.34 8.34 39.68 8 39 C0.00890346 36.91760165 -8.4783639 36.48904942 -16.6875 35.875 C-17.75033203 35.78863281 -18.81316406 35.70226562 -19.90820312 35.61328125 C-25.95964736 35.14290372 -31.93080117 34.91102745 -38 35 C-37.01 37.97 -36.02 40.94 -35 44 C-38 43 -38 43 -39.1328125 41.3984375 C-44.108504 31.25116113 -44.108504 31.25116113 -42.359375 26.12109375 C-41.84258374 23.07090186 -43.00081094 21.51067214 -44.4375 18.8125 C-46.78610641 13.92556688 -48.35411636 9.41646546 -47 4 C-45.85791016 2.40039062 -45.85791016 2.40039062 -44 1 C-34.21901522 -0.20875148 -23.85813309 1.43859222 -14.125 2.5 C-12.74355893 2.64519261 -11.3620485 2.78972677 -9.98046875 2.93359375 C-6.65290988 3.28263839 -3.32619107 3.63819252 0 4 C0 2.68 0 1.36 0 0 Z " fill="#FFFFFF" transform="translate(74,260)"/>
<path d="M0 0 C0.33 -0.33 0.66 -0.66 1 -1 C3.33297433 -1.04092937 5.66705225 -1.04241723 8 -1 C8.67286212 1.41509441 9.33846012 3.83180356 10 6.25 C10.19078125 6.93191406 10.3815625 7.61382812 10.578125 8.31640625 C11.49957044 11.70600912 12 14.45778976 12 18 C8.04 18.495 8.04 18.495 4 19 C3.61328125 18.37351563 3.2265625 17.74703125 2.828125 17.1015625 C2.30734375 16.28429687 1.7865625 15.46703125 1.25 14.625 C0.73953125 13.81289062 0.2290625 13.00078125 -0.296875 12.1640625 C-2.12118548 9.84601662 -3.22820382 8.94303592 -6 8 C-9.12372777 7.78551869 -11.99200531 8.13188389 -15 9 C-19.14778474 12.9403955 -20.16280262 16.60142424 -20.3125 22.1875 C-20.25485111 27.62811355 -19.26223981 31.61099972 -16 36 C-13.62978677 38.23477247 -12.1676792 38.9318304 -8.92578125 39.12109375 C-3.18259737 38.81882091 0.85352586 36.97418297 5 33 C5.66 32.01 6.32 31.02 7 30 C11.75 31.875 11.75 31.875 14 33 C13.11497459 38.50682477 9.1190581 41.56979462 5 45 C-1.9903603 49.82093814 -9.76061633 49.93496552 -18 49 C-24.67232601 47.28364604 -29.23849658 42.61240193 -33 37 C-36.65712277 29.68575447 -37.10070689 22.19147063 -34.875 14.375 C-32.06023686 6.8382744 -27.12331157 2.42974261 -20 -1 C-13.43037656 -3.03281381 -6.30991312 -2.65680553 0 0 Z " fill="#FFFFFF" transform="translate(192,220)"/>
<path d="M0 0 C2.31282587 3.46923881 2.42478586 4.92205575 2 9 C0.6875 10.875 0.6875 10.875 -1 12 C-1.99 12 -2.98 12 -4 12 C-4.495 8.04 -4.495 8.04 -5 4 C-5.66 4.33 -6.32 4.66 -7 5 C-8.10784815 11.32427222 -8.30440103 17.71810378 -8.5625 24.125 C-8.62618774 25.63719116 -8.62618774 25.63719116 -8.69116211 27.17993164 C-8.99392604 34.79167262 -9.11882467 42.38201818 -9 50 C-6.03 49.01 -3.06 48.02 0 47 C-2.24973136 51.49946273 -3.36240736 52.24271714 -7.671875 54.2734375 C-10.23587238 55.07361118 -12.0818328 55.05574681 -14.75 54.875 C-20.47096858 54.57482572 -24.28852674 56.85492372 -29.140625 59.6875 C-32.42832228 61.19660695 -34.42271589 61.4640801 -38 61 C-40.15405273 59.8605957 -40.15405273 59.8605957 -42 58 C-42.4699707 55.21948242 -42.4699707 55.21948242 -42.42578125 51.85546875 C-42.41740234 50.61990234 -42.40902344 49.38433594 -42.40039062 48.11132812 C-42.37138672 46.81646484 -42.34238281 45.52160156 -42.3125 44.1875 C-42.30283203 42.93517578 -42.29316406 41.68285156 -42.28320312 40.39257812 C-42.18240062 31.89448881 -41.69581052 23.46828382 -41 15 C-42.32 15 -43.64 15 -45 15 C-44.67 14.01 -44.34 13.02 -44 12 C-42 11 -40 10 -38 9 C-37.13375 8.13375 -36.2675 7.2675 -35.375 6.375 C-33.08830082 4.08830082 -32.13373483 3.34819276 -29 3 C-29 4.98 -29 6.96 -29 9 C-27.35 8.67 -25.7 8.34 -24 8 C-24 8.99 -24 9.98 -24 11 C-25.98 11.33 -27.96 11.66 -30 12 C-30 26.19 -30 40.38 -30 55 C-24.25077841 54.4635601 -24.25077841 54.4635601 -21 52 C-20.52227993 49.45343086 -20.52227993 49.45343086 -20.55859375 46.46875 C-20.53216797 45.34726562 -20.50574219 44.22578125 -20.47851562 43.0703125 C-20.45821289 41.30300781 -20.45821289 41.30300781 -20.4375 39.5 C-20.24018785 26.49201356 -20.01109641 12.83643106 -10.375 3 C-6.72956043 -0.43849322 -4.99072901 -1.4972187 0 0 Z " fill="#FFFFFF" transform="translate(307,407)"/>
<path d="M0 0 C0.99 0.66 1.98 1.32 3 2 C3 3.32 3 4.64 3 6 C0.36 6 -2.28 6 -5 6 C-5 6.99 -5 7.98 -5 9 C0.26472332 9.57511213 5.53001673 10.14457708 10.79589844 10.70898438 C12.58447453 10.90147108 14.37288995 11.09545732 16.16113281 11.29101562 C18.74242264 11.57302945 21.32425631 11.84951401 23.90625 12.125 C24.69616333 12.21249512 25.48607666 12.29999023 26.29992676 12.39013672 C31.22981463 12.90948477 36.04254191 13.07900332 41 13 C40.01 10.03 39.02 7.06 38 4 C42.75519383 6.37759692 43.3796549 7.83008062 45.3359375 12.51171875 C46.04429312 15.16596893 45.94763398 16.7040155 45.4375 19.375 C44.5015147 24.54091884 46.54223551 27.73185264 48.84375 32.27734375 C50.61296017 36.44335554 50.49685093 39.52834159 50 44 C47.38561075 46.61438925 45.49419147 46.28654505 41.92871094 46.328125 C40.66462402 46.32039063 40.66462402 46.32039063 39.375 46.3125 C38.50649414 46.31121094 37.63798828 46.30992187 36.74316406 46.30859375 C25.73928086 46.15322653 14.87394661 44.58801292 4 43 C4 44.32 4 45.64 4 47 C3.01 47 2.02 47 1 47 C0.62875 45.80375 0.2575 44.6075 -0.125 43.375 C-1.8274766 38.73636812 -4.42535664 36.3363338 -8 33 C-8 32.34 -8 31.68 -8 31 C-5.69 31 -3.38 31 -1 31 C-1.33 29.35 -1.66 27.7 -2 26 C-1.01 26 -0.02 26 1 26 C1.33 27.98 1.66 29.96 2 32 C2.93714844 32.04898438 3.87429688 32.09796875 4.83984375 32.1484375 C15.17262877 32.71228072 25.48161759 33.48887113 35.79467773 34.33935547 C36.83052002 34.42459473 37.8663623 34.50983398 38.93359375 34.59765625 C39.86228271 34.67508057 40.79097168 34.75250488 41.74780273 34.83227539 C43.95600716 35.0247553 43.95600716 35.0247553 46 35 C44.68 31.7 43.36 28.4 42 25 C40.88625 24.96261719 39.7725 24.92523438 38.625 24.88671875 C4.70230829 23.52442177 4.70230829 23.52442177 -6.0625 12 C-8.55685625 9.08893952 -9.58829085 6.83206206 -10 3 C-7.76897067 -1.04374066 -4.16391412 -0.37177805 0 0 Z " fill="#FFFFFF" transform="translate(424,197)"/>
<path d="M0 0 C10.49425351 4.19383612 18.62547568 19.08151235 25.12109375 27.84765625 C26.12030085 29.18158389 27.12009137 30.51507529 28.12109375 31.84765625 C29.77109375 31.51765625 31.42109375 31.18765625 33.12109375 30.84765625 C32.97800781 31.53214844 32.83492187 32.21664062 32.6875 32.921875 C32.06097637 36.15819361 31.55240296 39.40101544 31.05859375 42.66015625 C30.88199219 43.82160156 30.70539063 44.98304688 30.5234375 46.1796875 C30.32427734 47.50033203 30.32427734 47.50033203 30.12109375 48.84765625 C27.12109375 48.84765625 27.12109375 48.84765625 25.43359375 47.34765625 C25.00046875 46.85265625 24.56734375 46.35765625 24.12109375 45.84765625 C23.46109375 46.83765625 22.80109375 47.82765625 22.12109375 48.84765625 C21.13109375 48.84765625 20.14109375 48.84765625 19.12109375 48.84765625 C19.54519531 47.82542969 19.96929687 46.80320313 20.40625 45.75 C21.54930848 41.83091867 21.54930848 41.83091867 19.3671875 38.6640625 C18.45418787 37.55982874 17.51604007 36.47608171 16.55859375 35.41015625 C15.53352425 34.19819563 14.50879935 32.98594349 13.484375 31.7734375 C12.9373291 31.14131348 12.3902832 30.50918945 11.82666016 29.85791016 C10.04934797 27.76309359 8.35186493 25.62057356 6.6640625 23.453125 C6.09437744 22.72730225 5.52469238 22.00147949 4.93774414 21.25366211 C3.82895025 19.84050598 2.72507864 18.42347071 1.62670898 17.00219727 C-1.22438124 13.43643852 -3.27892989 11.03584203 -7.87890625 9.84765625 C-8.35206294 11.39973075 -8.78117488 12.96527641 -9.19140625 14.53515625 C-9.43503906 15.40527344 -9.67867187 16.27539062 -9.9296875 17.171875 C-10.16082745 20.05705922 -10.16082745 20.05705922 -7.73046875 22.32421875 C-6.78945312 23.15695313 -5.8484375 23.9896875 -4.87890625 24.84765625 C13.39161338 45.3187456 13.39161338 45.3187456 13.43359375 59.41015625 C13.45035156 60.71082031 13.46710938 62.01148438 13.484375 63.3515625 C13.1120092 66.93508279 12.57885994 68.29910186 10.12109375 70.84765625 C4.75939162 70.25191157 4.75939162 70.25191157 2.24609375 68.66015625 C0.6244497 66.0475075 0.92077422 63.85244923 1.12109375 60.84765625 C2.44109375 60.84765625 3.76109375 60.84765625 5.12109375 60.84765625 C5.78109375 61.83765625 6.44109375 62.82765625 7.12109375 63.84765625 C8.11109375 64.17765625 9.10109375 64.50765625 10.12109375 64.84765625 C7.96030961 59.0150501 4.99735425 54.82448019 0.99609375 50.09765625 C-0.17200092 48.6941152 -1.33996906 47.29046884 -2.5078125 45.88671875 C-3.08031738 45.20383789 -3.65282227 44.52095703 -4.24267578 43.81738281 C-5.71825359 42.0410531 -7.16358415 40.24654088 -8.59375 38.43359375 C-9.36847656 37.45648438 -10.14320312 36.479375 -10.94140625 35.47265625 C-11.61300781 34.61929688 -12.28460938 33.7659375 -12.9765625 32.88671875 C-14.8569735 30.87116528 -16.34519471 29.87468409 -18.87890625 28.84765625 C-20.36390625 32.31265625 -20.36390625 32.31265625 -21.87890625 35.84765625 C-22.53890625 35.84765625 -23.19890625 35.84765625 -23.87890625 35.84765625 C-23.53884589 29.49986284 -22.21975117 24.66948122 -17.87890625 19.84765625 C-15.06640625 18.84765625 -15.06640625 18.84765625 -12.87890625 18.84765625 C-12.7809375 18.26757812 -12.68296875 17.6875 -12.58203125 17.08984375 C-11.31904407 10.4918245 -9.27189863 6.18082382 -4.37890625 1.41015625 C-1.87890625 -0.15234375 -1.87890625 -0.15234375 0 0 Z " fill="#FFFFFF" transform="translate(90.87890625,100.15234375)"/>
<path d="M0 0 C0.78415343 15.24742789 -1.60148815 29.97262157 -4 45 C-2.68 45 -1.36 45 0 45 C0 45.66 0 46.32 0 47 C-0.83144531 47.39832031 -1.66289062 47.79664063 -2.51953125 48.20703125 C-3.60621094 48.73683594 -4.69289062 49.26664063 -5.8125 49.8125 C-7.43091797 50.59560547 -7.43091797 50.59560547 -9.08203125 51.39453125 C-11.59719587 52.77837685 -13.06351789 53.96577747 -15 56 C-15.66 56 -16.32 56 -17 56 C-17 54.02 -17 52.04 -17 50 C-18.65 50 -20.3 50 -22 50 C-22 49.01 -22 48.02 -22 47 C-19.525 46.505 -19.525 46.505 -17 46 C-15.10515154 38.14623895 -13.92365343 30.24870015 -12.8125 22.25 C-12.62236328 20.94933594 -12.43222656 19.64867187 -12.23632812 18.30859375 C-12.06166016 17.05691406 -11.88699219 15.80523437 -11.70703125 14.515625 C-11.5469458 13.38415039 -11.38686035 12.25267578 -11.22192383 11.08691406 C-11.00917977 8.12768872 -11.25730651 5.85615458 -12 3 C-14.97 3.99 -17.94 4.98 -21 6 C-21.09796875 7.258125 -21.1959375 8.51625 -21.296875 9.8125 C-24.07428003 42.71183146 -24.07428003 42.71183146 -35.625 53.4375 C-41.15352697 57.0746888 -41.15352697 57.0746888 -44.125 56.8125 C-46 56 -46 56 -48 53 C-47.54716981 46.54716981 -47.54716981 46.54716981 -45 44 C-43.68 44 -42.36 44 -41 44 C-41 46.64 -41 49.28 -41 52 C-40.01 51.505 -40.01 51.505 -39 51 C-36.3819979 42.10427559 -35.47467868 32.60765315 -34.3125 23.4375 C-34.18109619 22.40294678 -34.04969238 21.36839355 -33.91430664 20.30249023 C-33.33226747 15.50897355 -32.82627654 10.83943916 -33 6 C-37.455 7.485 -37.455 7.485 -42 9 C-41 6 -41 6 -39.1796875 4.83203125 C-33.20035286 2.18693576 -28.44074165 0.85308612 -22 3 C-19.8097152 2.28041315 -19.8097152 2.28041315 -17.5625 1.125 C-11.5897013 -1.7653899 -6.35414526 -3.17707263 0 0 Z " fill="#FFFFFF" transform="translate(245,32)"/>
<path d="M0 0 C0.67417969 0.15339844 1.34835938 0.30679687 2.04296875 0.46484375 C5.46877952 1.08483857 8.83893447 1.3352574 12.3125 1.5625 C13.56675781 1.64628906 14.82101563 1.73007812 16.11328125 1.81640625 C17.54220703 1.90728516 17.54220703 1.90728516 19 2 C18 4 17 6 16 8 C17.32 8.66 18.64 9.32 20 10 C20 10.66 20 11.32 20 12 C18.865625 11.649375 17.73125 11.29875 16.5625 10.9375 C13.39452401 10.52963007 12.33890025 10.74567798 9.74609375 12.69140625 C7.43008397 15.07186152 5.21919293 17.52942947 3 20 C1.75029777 21.12802736 0.48014883 22.2339545 -0.8125 23.3125 C-4.50501952 26.49570648 -8.01931858 29.83871789 -11.5 33.25 C-12.04116455 33.76989502 -12.5823291 34.28979004 -13.13989258 34.82543945 C-14.48608414 36.1594934 -15.75020759 37.57523665 -17 39 C-17 39.99 -17 40.98 -17 42 C-13.4938712 43.60280174 -10.85501759 44.50662618 -7 44 C-4.77858737 42.12760056 -4.77858737 42.12760056 -2.8125 39.5625 C4.91271485 30.52208328 15.55872343 18.61775113 28 17 C29.85101012 16.86347159 31.70672007 16.78097268 33.5625 16.75 C34.49191406 16.72421875 35.42132813 16.6984375 36.37890625 16.671875 C39.41295058 17.05169575 40.74873877 17.98710761 43 20 C40.94736842 27.10526316 40.94736842 27.10526316 38 29 C34.8125 29.1875 34.8125 29.1875 32 29 C32.33 27.68 32.66 26.36 33 25 C33.66 25 34.32 25 35 25 C35.33 23.35 35.66 21.7 36 20 C31.25322326 21.96817572 28.31179385 24.48218112 24.8359375 28.125 C23.04941731 29.94953126 21.19585831 31.598006 19.25 33.25 C15.76891887 36.26693698 12.41821043 39.4051158 9.125 42.625 C8.19945312 43.52476562 7.27390625 44.42453125 6.3203125 45.3515625 C4.09750399 47.88870757 3.00148835 49.81135319 2 53 C4.64 53.66 7.28 54.32 10 55 C10 55.66 10 56.32 10 57 C3.41324355 56.10926425 -1.84637012 55.36076374 -7 51 C-7.66 50.01 -8.32 49.02 -9 48 C-11.9346918 46.93875037 -11.9346918 46.93875037 -15.3125 46.125 C-20.63937821 44.58285404 -23.80427514 43.56532122 -27 39 C-27.8125 37.09765625 -27.8125 37.09765625 -28 35 C-26.796875 33.08984375 -26.796875 33.08984375 -24.75 30.9375 C-23.93917969 30.08285156 -23.12835938 29.22820312 -22.29296875 28.34765625 C-21.19654219 27.23056256 -20.09868919 26.11486841 -19 25 C-18.25314941 24.23413574 -17.50629883 23.46827148 -16.73681641 22.67919922 C-14.18744537 20.06904584 -11.62736915 17.46992246 -9.0625 14.875 C-8.20946289 14.00866943 -7.35642578 13.14233887 -6.47753906 12.24975586 C-5.67155273 11.4428833 -4.86556641 10.63601074 -4.03515625 9.8046875 C-3.3069165 9.07233887 -2.57867676 8.33999023 -1.82836914 7.58544922 C0 6 0 6 2 6 C1.34 4.02 0.68 2.04 0 0 Z " fill="#FFFFFF" transform="translate(136,378)"/>
<path d="M0 0 C6.35086585 0.28802113 10.80872488 1.21469523 16 5 C16.6875 7.13671875 16.6875 7.13671875 17 9 C17.79664063 9.17015625 18.59328125 9.3403125 19.4140625 9.515625 C26.64867096 11.17025565 31.69299821 12.69299821 37 18 C37.4375 20.2578125 37.4375 20.2578125 37 23 C35.39313652 25.16808418 33.87153409 26.96710467 32 28.875 C31.49815186 29.40383789 30.99630371 29.93267578 30.47924805 30.47753906 C27.12655094 33.9677251 23.63000782 37.22853985 19.91796875 40.3359375 C17.00483269 42.86342418 14.34669456 45.63030323 11.6640625 48.3984375 C10 50 10 50 8 51 C8.495 53.97 8.495 53.97 9 57 C7.906875 56.67 6.81375 56.34 5.6875 56 C0.47109568 54.67014468 -4.65248469 54.82306016 -10 55 C-9.42655063 52.13275314 -9.1385485 51.1385485 -7 49 C-7.99 48.34 -8.98 47.68 -10 47 C-10 46.01 -10 45.02 -10 44 C-7.69 44.66 -5.38 45.32 -3 46 C-2.5153125 45.50371094 -2.030625 45.00742188 -1.53125 44.49609375 C1.77847348 41.1418163 5.09347164 37.86244305 8.6875 34.8125 C12.57672684 31.45220801 16.27050884 27.91153765 19.9375 24.3125 C20.51781982 23.75344971 21.09813965 23.19439941 21.69604492 22.6184082 C22.23849854 22.08046631 22.78095215 21.54252441 23.33984375 20.98828125 C23.82831787 20.50915283 24.31679199 20.03002441 24.82006836 19.53637695 C26.34025466 17.7682208 26.34025466 17.7682208 27 14 C23.37 13.34 19.74 12.68 16 12 C15.34 13.32 14.68 14.64 14 16 C12.27070993 17.9751065 10.54205778 19.83827141 8.6875 21.6875 C7.90149414 22.47326416 7.90149414 22.47326416 7.09960938 23.27490234 C-1.48786058 31.6210085 -11.0431939 39.0669794 -23.2265625 40.046875 C-27.16446844 39.98031884 -29.58441976 38.89754458 -33 37 C-33.3125 34.8125 -33.3125 34.8125 -33 32 C-30.8125 29.125 -30.8125 29.125 -28 27 C-25.1875 27.1875 -25.1875 27.1875 -23 28 C-23 31 -23 31 -24.4375 32.5 C-24.953125 32.995 -25.46875 33.49 -26 34 C-26.33 34.99 -26.66 35.98 -27 37 C-20.97493533 33.56396312 -16.04033432 29.55955752 -11.0625 24.75 C-10.36882324 24.08830811 -9.67514648 23.42661621 -8.96044922 22.74487305 C-6.96639648 20.83726499 -4.98229511 18.91981142 -3 17 C-2.48066895 16.50258301 -1.96133789 16.00516602 -1.42626953 15.49267578 C4.1072047 10.35868744 4.1072047 10.35868744 8 4 C5.36 3.34 2.72 2.68 0 2 C0 1.34 0 0.68 0 0 Z " fill="#FFFFFF" transform="translate(361,72)"/>
<path d="M0 0 C2.6875 0.3125 2.6875 0.3125 4.9375 2.0625 C6.67326518 4.29419809 7.59646982 5.49056442 7.6875 8.3125 C6.25 10.0625 6.25 10.0625 4.6875 11.3125 C4.460625 10.673125 4.23375 10.03375 4 9.375 C2.83499104 7.04056339 2.83499104 7.04056339 0.0625 6.5625 C-0.72125 6.48 -1.505 6.3975 -2.3125 6.3125 C-0.36497046 10.56501703 1.74237543 13.78011191 4.9375 17.1875 C5.73542969 18.04988281 6.53335937 18.91226562 7.35546875 19.80078125 C8.12503906 20.62964844 8.89460938 21.45851563 9.6875 22.3125 C10.88112484 23.66127105 12.06917178 25.01501164 13.25 26.375 C14.08337891 27.32246094 14.08337891 27.32246094 14.93359375 28.2890625 C16.2153638 29.76780835 17.4755119 31.26537427 18.72265625 32.7734375 C19.41230469 33.59070313 20.10195313 34.40796875 20.8125 35.25 C21.74449219 36.37728516 21.74449219 36.37728516 22.6953125 37.52734375 C25.02191571 39.6121627 26.62146691 39.978313 29.6875 40.3125 C30.3475 38.3325 31.0075 36.3525 31.6875 34.3125 C32.3475 34.3125 33.0075 34.3125 33.6875 34.3125 C33.15153297 40.52971757 32.48818981 45.76641836 27.625 50.1875 C25.6875 51.3125 25.6875 51.3125 23.6875 51.3125 C23.5328125 52.8284375 23.5328125 52.8284375 23.375 54.375 C22.20701365 61.06437639 20.11255052 66.0499603 14.6875 70.3125 C11.70406168 70.71772489 10.25798161 70.71008648 7.76220703 68.97070312 C7.16263184 68.35130859 6.56305664 67.73191406 5.9453125 67.09375 C5.27113281 66.40796875 4.59695313 65.7221875 3.90234375 65.015625 C3.21269531 64.28859375 2.52304687 63.5615625 1.8125 62.8125 C1.13058594 62.11640625 0.44867188 61.4203125 -0.25390625 60.703125 C-6.59402694 54.18185801 -12.52648234 47.32585473 -18.3125 40.3125 C-20.7875 40.8075 -20.7875 40.8075 -23.3125 41.3125 C-23.003125 40.19875 -22.69375 39.085 -22.375 37.9375 C-21.15449336 33.10740988 -20.69850363 28.26959931 -20.3125 23.3125 C-18.3125 24.3125 -16.3125 25.3125 -14.3125 26.3125 C-13.3225 24.9925 -12.3325 23.6725 -11.3125 22.3125 C-10.3125 25.3125 -10.3125 25.3125 -10.9296875 27.76953125 C-11.58527787 30.30507543 -11.58527787 30.30507543 -10.1953125 32.19921875 C-9.61523438 32.79347656 -9.03515625 33.38773437 -8.4375 34 C-7.78523438 34.68964844 -7.13296875 35.37929688 -6.4609375 36.08984375 C-5.39746094 37.19005859 -5.39746094 37.19005859 -4.3125 38.3125 C-2.89078202 39.89129918 -1.47431807 41.47484178 -0.0625 43.0625 C5.1523146 48.84472966 10.41803961 54.58011505 15.6875 60.3125 C18.85777237 59.64433313 18.85777237 59.64433313 19.875 57 C20.88042633 54.14229816 20.88042633 54.14229816 20.6875 50.3125 C19.24571737 48.68263611 19.24571737 48.68263611 17.25 47.25 C7.05002135 38.81922119 -4.00909593 25.79486922 -5.55859375 12.14453125 C-5.68715705 8.11369382 -5.15839459 4.89570714 -3.3125 1.3125 C-2.3125 0.3125 -2.3125 0.3125 0 0 Z " fill="#FFFFFF" transform="translate(403.3125,324.6875)"/>
<path d="M0 0 C2.4375 1.5 2.4375 1.5 4 3 C4.66 2.34 5.32 1.68 6 1 C8.16040039 0.84887695 8.16040039 0.84887695 10.84765625 0.98828125 C11.83813965 1.03500977 12.82862305 1.08173828 13.84912109 1.12988281 C15.43974365 1.22027832 15.43974365 1.22027832 17.0625 1.3125 C18.67632568 1.38936035 18.67632568 1.38936035 20.32275391 1.46777344 C25.32131609 1.71312901 30.31161704 2.00954911 35.30078125 2.40234375 C36.08122803 2.46059326 36.8616748 2.51884277 37.66577148 2.57885742 C39.11049421 2.69077594 40.5542191 2.81667901 41.99633789 2.95825195 C44.11717073 3.16078435 44.11717073 3.16078435 47 3 C47.66 2.01 48.32 1.02 49 0 C49.66 0 50.32 0 51 0 C51.66 0.99 52.32 1.98 53 3 C53.556875 2.649375 54.11375 2.29875 54.6875 1.9375 C57.6168682 0.7499183 59.02608955 1.00869652 62 2 C63.8125 3.1875 63.8125 3.1875 65 5 C65.53852618 8.61581862 65.42236225 10.34111489 63.4375 13.4375 C61 15 61 15 57.375 14.75 C56.26125 14.5025 55.1475 14.255 54 14 C53.34 14 52.68 14 52 14 C51.67 14.33 51.34 14.66 51 15 C42.07716493 15.7830243 32.97450924 14.55738829 24.09912109 13.71166992 C15.67273951 12.24495338 15.67273951 12.24495338 8.125 14.5 C7.75375 14.995 7.3825 15.49 7 16 C5.68 14.02 4.36 12.04 3 10 C2.62875 10.495 2.2575 10.99 1.875 11.5 C-0.8023572 13.64188576 -2.64172556 13.26866196 -6 13 C-7.67453799 12.708776 -9.34550895 12.38929201 -11 12 C-10.91253716 10.56138706 -10.80434652 9.12402492 -10.6875 7.6875 C-10.62949219 6.88699219 -10.57148438 6.08648437 -10.51171875 5.26171875 C-9.19894373 -0.54054642 -5.31429892 -0.55939989 0 0 Z " fill="#FFFFFF" transform="translate(22,239)"/>
<path d="M0 0 C2.375 1.8125 2.375 1.8125 4 4 C4 4.99 4 5.98 4 7 C4.87398438 7.03609375 5.74796875 7.0721875 6.6484375 7.109375 C11.07022925 8.28439658 12.91782049 10.78580184 15.625 14.25 C16.66871313 15.51976016 17.71434057 16.78794882 18.76171875 18.0546875 C19.55908447 19.03066895 19.55908447 19.03066895 20.37255859 20.02636719 C22.99322428 23.20450421 25.69157632 26.30486297 28.4375 29.375 C28.92105957 29.93993164 29.40461914 30.50486328 29.90283203 31.08691406 C32.17973587 33.61610422 33.40156801 34.92611951 36.84765625 35.3515625 C37.55792969 35.23554688 38.26820313 35.11953125 39 35 C38.125 40.75 38.125 40.75 37 43 C37.556875 42.773125 38.11375 42.54625 38.6875 42.3125 C41 42 41 42 43.6875 43 C46 45 46 45 47.125 48.4375 C47 52 47 52 44.9375 54.5 C42 56 42 56 38.875 56 C35.58802073 54.85670286 34.5787384 54.06976912 33 51 C33 49.68 33 48.36 33 47 C32.09636719 46.76023437 31.19273437 46.52046875 30.26171875 46.2734375 C26.64840735 44.86273149 25.27579328 43.56951692 22.8125 40.625 C21.6678125 39.29275391 21.6678125 39.29275391 20.5 37.93359375 C19.675 36.96550781 18.85 35.99742187 18 35 C16.1223736 32.87905125 14.2200822 30.78149833 12.3125 28.6875 C11.44238281 27.72199219 10.57226562 26.75648438 9.67578125 25.76171875 C6.87696454 22.87301304 4.2411921 20.38208094 1 18 C-0.32 18 -1.64 18 -3 18 C-2.34 16.35 -1.68 14.7 -1 13 C-2.11375 12.9175 -3.2275 12.835 -4.375 12.75 C-8 12 -8 12 -9.5 10.25 C-10.1260799 7.43264043 -9.91202699 5.73608098 -9 3 C-6.64075898 -0.60094682 -4.08994652 -0.58427807 0 0 Z " fill="#FFFFFF" transform="translate(371,365)"/>
<path d="M0 0 C4.35653019 1.39038198 4.35653019 1.39038198 5.9375 3.9375 C6.25 7 6.25 7 5.9375 9.9375 C5.2775 10.5975 4.6175 11.2575 3.9375 11.9375 C4.43314453 12.41944824 4.92878906 12.90139648 5.43945312 13.39794922 C7.59918746 17.05921984 7.14484192 20.46724043 6.90625 24.5703125 C6.87269409 25.40335907 6.83913818 26.23640564 6.80456543 27.09469604 C6.69710292 29.75152914 6.56968471 32.40678906 6.4375 35.0625 C6.26387792 38.5646151 6.11020102 42.06676783 5.96875 45.5703125 C5.9219812 46.37864532 5.8752124 47.18697815 5.82702637 48.01980591 C5.69115923 50.51735212 5.69115923 50.51735212 5.9375 53.9375 C6.9275 54.5975 7.9175 55.2575 8.9375 55.9375 C8.9375 56.5975 8.9375 57.2575 8.9375 57.9375 C6.9575 58.9275 4.9775 59.9175 2.9375 60.9375 C3.618125 61.453125 4.29875 61.96875 5 62.5 C6.9375 64.9375 6.9375 64.9375 6.875 68.5625 C5.9375 71.9375 5.9375 71.9375 2.9375 73.9375 C-2.27516968 74.48048643 -2.27516968 74.48048643 -4.875 72.6875 C-6.33432183 70.53692046 -6.98936491 69.57036329 -7.0625 66.9375 C-5.9130867 64.44531416 -4.54004954 62.26575989 -3.0625 59.9375 C-3.7225 59.9375 -4.3825 59.9375 -5.0625 59.9375 C-5.83548951 54.48110345 -6.20061416 49.22481478 -6.16015625 43.71875 C-6.1587413 42.97540405 -6.15732635 42.23205811 -6.15586853 41.46618652 C-6.15033109 39.12324771 -6.13779091 36.78040927 -6.125 34.4375 C-6.11997689 32.83593889 -6.11541542 31.23437627 -6.11132812 29.6328125 C-6.10038227 25.73433712 -6.08316196 21.8359355 -6.0625 17.9375 C-6.7225 17.6075 -7.3825 17.2775 -8.0625 16.9375 C-8.0625 15.9475 -8.0625 14.9575 -8.0625 13.9375 C-7.0725 13.9375 -6.0825 13.9375 -5.0625 13.9375 C-5.578125 13.03 -6.09375 12.1225 -6.625 11.1875 C-8.0625 7.9375 -8.0625 7.9375 -8 5.8125 C-6.04882131 1.91014262 -4.52630995 -0.09237367 0 0 Z " fill="#FFFFFF" transform="translate(250.0625,409.0625)"/>
<path d="M0 0 C3.375 0.875 3.375 0.875 5.375 2.875 C5.95498725 9.13886233 5.95498725 9.13886233 3.75 11.9375 C3.29625 12.576875 2.8425 13.21625 2.375 13.875 C2.69065918 14.75736328 3.00631836 15.63972656 3.33154297 16.54882812 C4.56071923 20.4670072 4.28179012 22.98269683 3.6953125 27.03125 C3.55789139 28.0292865 3.55789139 28.0292865 3.41769409 29.04748535 C3.12476804 31.15873211 2.81332519 33.2666932 2.5 35.375 C2.19724893 37.48363464 1.89849144 39.59274861 1.60372925 41.70251465 C1.33458809 43.61719302 1.05456001 45.53033176 0.77392578 47.44335938 C0.40382556 50.62703665 0.30091513 53.67404366 0.375 56.875 C1.035 57.205 1.695 57.535 2.375 57.875 C2.375 58.535 2.375 59.195 2.375 59.875 C1.385 60.535 0.395 61.195 -0.625 61.875 C-0.274375 62.431875 0.07625 62.98875 0.4375 63.5625 C1.63353552 66.51272095 1.44458635 67.89543802 0.375 70.875 C-1.3125 72.75 -1.3125 72.75 -3.625 73.875 C-7.1053645 73.80397215 -8.91985909 73.48915498 -11.5625 71.1875 C-12.99583897 68.0678799 -12.39502457 66.16510498 -11.625 62.875 C-11.52205559 59.9091425 -11.52205559 59.9091425 -12.18725586 57.20263672 C-12.71408302 53.19781007 -12.24530244 49.58647444 -11.62890625 45.6328125 C-11.51651108 44.86444061 -11.40411591 44.09606873 -11.28831482 43.30441284 C-10.92995636 40.86824492 -10.55893765 38.43420447 -10.1875 36 C-9.94121655 34.34127045 -9.69576503 32.68241714 -9.45117188 31.0234375 C-8.85206588 26.97246285 -8.24160409 22.92334662 -7.625 18.875 C-8.615 18.545 -9.605 18.215 -10.625 17.875 C-10.295 16.885 -9.965 15.895 -9.625 14.875 C-7.0625 13.6875 -7.0625 13.6875 -4.625 12.875 C-5.12 12.318125 -5.615 11.76125 -6.125 11.1875 C-7.93184791 8.4019428 -8.19535173 7.13415277 -7.625 3.875 C-5.27446179 0.30218192 -4.32956596 -0.14929538 0 0 Z " fill="#FFFFFF" transform="translate(262.625,17.125)"/>
<path d="M0 0 C2.3125 1.25 2.3125 1.25 4.3125 3.25 C4.79658063 6.96128487 4.80149662 8.60924581 2.5 11.625 C0.3125 13.25 0.3125 13.25 -2.6875 13.25 C-2.60685303 13.98355713 -2.52620605 14.71711426 -2.44311523 15.47290039 C-2.76525545 19.13358465 -3.98951959 20.14424679 -6.59765625 22.68359375 C-7.42330078 23.49763672 -8.24894531 24.31167969 -9.09960938 25.15039062 C-9.97423828 25.98763672 -10.84886719 26.82488281 -11.75 27.6875 C-13.02133789 28.93756836 -13.02133789 28.93756836 -14.31835938 30.21289062 C-18.03075139 33.83928129 -21.7593507 37.3555749 -25.78125 40.63671875 C-29.02553035 42.98325942 -29.02553035 42.98325942 -29.125 46.625 C-28.980625 47.49125 -28.83625 48.3575 -28.6875 49.25 C-31.3275 48.92 -33.9675 48.59 -36.6875 48.25 C-36.625625 49.178125 -36.56375 50.10625 -36.5 51.0625 C-36.6875 54.25 -36.6875 54.25 -37.75 56.125 C-40.7944286 57.89273274 -43.2506012 57.61823916 -46.6875 57.25 C-48.625 56.125 -48.625 56.125 -49.6875 54.25 C-50.23374158 50.58237794 -50.16648298 48.9241242 -48 45.875 C-45.29959763 43.97741996 -43.91689919 43.89117787 -40.6875 44.25 C-40.64181885 43.38576416 -40.5961377 42.52152832 -40.54907227 41.63110352 C-39.44046432 37.28054772 -37.09045698 35.10573318 -33.90234375 32.15234375 C-33.03882042 31.31722008 -33.03882042 31.31722008 -32.15785217 30.46522522 C-30.32515337 28.69341291 -28.47734826 26.93874543 -26.625 25.1875 C-24.182251 22.87769833 -21.75650442 20.55189269 -19.33984375 18.21484375 C-18.77426254 17.69075424 -18.20868134 17.16666473 -17.6259613 16.62669373 C-15.14985264 14.2296393 -13.7630922 12.86471554 -13.33422852 9.37719727 C-13.45080811 8.67522217 -13.5673877 7.97324707 -13.6875 7.25 C-11.2125 7.745 -11.2125 7.745 -8.6875 8.25 C-8.3575 5.94 -8.0275 3.63 -7.6875 1.25 C-4.68920048 -0.29198261 -3.31107105 -0.92401983 0 0 Z " fill="#FFFFFF" transform="translate(132.6875,359.75)"/>
<path d="M0 0 C2.9375 0.375 2.9375 0.375 5.9375 1.375 C6.2675 1.045 6.5975 0.715 6.9375 0.375 C16.04991023 -0.25175801 25.14439277 0.86617095 34.1875 1.875 C35.52988506 2.02011393 36.87233288 2.16464838 38.21484375 2.30859375 C41.45638934 2.65840083 44.69718858 3.01396965 47.9375 3.375 C48.2675 2.385 48.5975 1.395 48.9375 0.375 C49.9275 0.705 50.9175 1.035 51.9375 1.375 C52.4325 3.85 52.4325 3.85 52.9375 6.375 C53.989375 5.67375 55.04125 4.9725 56.125 4.25 C59.54006772 2.28668172 59.54006772 2.28668172 62.75 3 C64.9375 4.375 64.9375 4.375 66.9375 6.375 C67.40921648 9.99149298 67.35541658 11.74812512 65.3125 14.8125 C62.9375 16.375 62.9375 16.375 59.8125 16.1875 C56.9375 15.375 56.9375 15.375 54.9375 14.375 C54.9375 13.715 54.9375 13.055 54.9375 12.375 C53.9475 13.035 52.9575 13.695 51.9375 14.375 C42.96616545 15.24307501 33.64499518 14.04118557 24.6875 13.375 C23.3450802 13.27825487 22.00263232 13.18189859 20.66015625 13.0859375 C17.41897538 12.85275902 14.17812869 12.61571047 10.9375 12.375 C10.6075 13.035 10.2775 13.695 9.9375 14.375 C8.9475 14.375 7.9575 14.375 6.9375 14.375 C6.2775 13.715 5.6175 13.055 4.9375 12.375 C4.050625 12.7875 3.16375 13.2 2.25 13.625 C-1.0625 14.375 -1.0625 14.375 -3.875 12.8125 C-6.28578663 10.1261949 -7.15041971 8.97970791 -7.0625 5.375 C-5.07293049 1.79377489 -4.13468903 0.50628845 0 0 Z " fill="#FFFFFF" transform="translate(421.0625,249.625)"/>
<path d="M0 0 C2.3125 1.6875 2.3125 1.6875 4 4 C4.25 6.75 4.25 6.75 4 9 C4.70511719 9.1959375 5.41023438 9.391875 6.13671875 9.59375 C10.01659598 11.49928315 12.11197 14.18932118 14.8125 17.5 C15.33585937 18.12640381 15.85921875 18.75280762 16.3984375 19.39819336 C17.9444154 21.25588333 19.4751481 23.12494777 21 25 C21.79792969 25.98097656 22.59585938 26.96195313 23.41796875 27.97265625 C26.0115623 31.19883359 28.5797048 34.4337244 31.046875 37.7578125 C32.81055877 40.29186832 32.81055877 40.29186832 35.75 40.3125 C36.86375 40.1578125 36.86375 40.1578125 38 40 C37.67 41.32 37.34 42.64 37 44 C37.969375 44.474375 38.93875 44.94875 39.9375 45.4375 C43 47 43 47 44 48 C44.46666667 54.3 44.46666667 54.3 42.75 56.875 C40.68351183 58.20345668 39.47125406 58.85463211 37 59 C33.68847704 57.58077588 32.30584977 56.75562883 30.9375 53.375 C30.628125 52.59125 30.31875 51.8075 30 51 C29.38382813 50.85175781 28.76765625 50.70351562 28.1328125 50.55078125 C25.46006351 49.86056585 24.69380384 48.91916625 22.9375 46.8125 C22.339375 46.09835938 21.74125 45.38421875 21.125 44.6484375 C18.54107441 41.42803024 15.98496027 38.18678965 13.4375 34.9375 C12.72170776 34.0261731 12.72170776 34.0261731 11.99145508 33.09643555 C10.02398804 30.58981506 8.0622431 28.08207737 6.13671875 25.54296875 C3.34523689 21.91554305 3.34523689 21.91554305 -0.875 20.5625 C-1.926875 20.7790625 -1.926875 20.7790625 -3 21 C-1.125 15.25 -1.125 15.25 0 13 C-0.928125 13.061875 -1.85625 13.12375 -2.8125 13.1875 C-6 13 -6 13 -7.8125 11.75 C-9.21205 9.68750526 -9.85264484 8.50503771 -10 6 C-7.5587158 1.00117997 -5.63904133 -0.67131444 0 0 Z " fill="#FFFFFF" transform="translate(99,75)"/>
<path d="M0 0 C2.35055139 1.54001643 2.90737836 2.76535851 3.9375 5.375 C4 8 4 8 2.375 10.75 C-0.19346446 13.18328212 -1.53172778 13.71097731 -5 14 C-5.165 14.845625 -5.33 15.69125 -5.5 16.5625 C-6.9883287 19.97325328 -7.75258801 20.8779856 -10.5 23.14453125 C-15.36536061 27.27713708 -19.9465603 31.65313658 -24.5 36.125 C-25.32242187 36.91003906 -26.14484375 37.69507813 -26.9921875 38.50390625 C-27.76820313 39.26832031 -28.54421875 40.03273437 -29.34375 40.8203125 C-30.04693359 41.50367676 -30.75011719 42.18704102 -31.47460938 42.89111328 C-33.32789986 45.4533289 -33.31576418 46.90645568 -33 50 C-34.32 49.67 -35.64 49.34 -37 49 C-37.433125 50.7015625 -37.433125 50.7015625 -37.875 52.4375 C-38.24625 53.613125 -38.6175 54.78875 -39 56 C-42.04983996 57.52491998 -44.6423369 57.23562548 -48 57 C-49.9375 55.9375 -49.9375 55.9375 -51 54 C-51.4375 50.5 -51.4375 50.5 -51 47 C-49.1875 45.0625 -49.1875 45.0625 -47 44 C-46.01 44 -45.02 44 -44 44 C-44.20109375 42.97519531 -44.20109375 42.97519531 -44.40625 41.9296875 C-43.77163603 37.35314447 -40.77126694 35.20069531 -37.5 32.125 C-36.8594165 31.50439697 -36.21883301 30.88379395 -35.55883789 30.24438477 C-31.16542852 26.0154851 -26.64467325 21.95077026 -22 18 C-18.04192669 14.78809296 -18.04192669 14.78809296 -16.6875 10.1875 C-16.8421875 9.1046875 -16.8421875 9.1046875 -17 8 C-14.69 8.33 -12.38 8.66 -10 9 C-9.896875 7.88625 -9.79375 6.7725 -9.6875 5.625 C-9.460625 4.42875 -9.23375 3.2325 -9 2 C-5.53076119 -0.31282587 -4.07794425 -0.42478586 0 0 Z " fill="#FFFFFF" transform="translate(420,90)"/>
<path d="M0 0 C2 3 2 3 1.75 6.5 C1 10 1 10 -1 13 C-0.01 14.32 0.98 15.64 2 17 C2.33 14.69 2.66 12.38 3 10 C4.32 9.67 5.64 9.34 7 9 C6.85691406 10.22976562 6.85691406 10.22976562 6.7109375 11.484375 C6.54464844 13.10085937 6.54464844 13.10085937 6.375 14.75 C6.25898438 15.81734375 6.14296875 16.8846875 6.0234375 17.984375 C5.99970525 21.03792399 6.38579015 22.46162421 8 25 C7.278125 24.938125 6.55625 24.87625 5.8125 24.8125 C2.90811664 24.78369585 2.90811664 24.78369585 0.5 26.5625 C-2 28 -2 28 -4.625 27.9375 C-7.63869999 26.74788158 -8.6080704 25.93851805 -10 23 C-9.76796939 19.75157148 -9.22318034 16.82576727 -8.375 13.6875 C-7.79030774 11.89389066 -7.79030774 11.89389066 -9 10 C-9.4524237 3.77917415 -9.4524237 3.77917415 -7.875 1.0625 C-5.12198451 -0.49754211 -3.0996593 -0.39570119 0 0 Z M-5 3 C-5 4.98 -5 6.96 -5 9 C-4.01 9.495 -4.01 9.495 -3 10 C-2.67 8.02 -2.34 6.04 -2 4 C-2.99 3.67 -3.98 3.34 -5 3 Z M-5 16 C-5.67801034 18.90073181 -5.67801034 18.90073181 -6 22 C-5.34 22.66 -4.68 23.32 -4 24 C-1.89179203 23.6814823 -1.89179203 23.6814823 0 23 C0 22.01 0 21.02 0 20 C-2.4390706 17.79857668 -2.4390706 17.79857668 -5 16 Z " fill="#FFFFFF" transform="translate(218,117)"/>
<path d="M0 0 C0 1.32 0 2.64 0 4 C-0.91523438 4.06058594 -1.83046875 4.12117188 -2.7734375 4.18359375 C-3.96195313 4.26738281 -5.15046875 4.35117187 -6.375 4.4375 C-8.15003906 4.55931641 -8.15003906 4.55931641 -9.9609375 4.68359375 C-12.91518901 4.81084936 -12.91518901 4.81084936 -15 6 C-12.94077598 8.05922402 -8.78291876 7.41427579 -5.9375 7.5625 C-4.79958008 7.62727539 -4.79958008 7.62727539 -3.63867188 7.69335938 C-1.75934562 7.79973633 0.12030244 7.90039934 2 8 C2 9.32 2 10.64 2 12 C-2.95 12.33 -7.9 12.66 -13 13 C-9.36804504 15.42130331 -7.61650652 15.21022785 -3.3125 15.125 C-2.13300781 15.10695313 -0.95351562 15.08890625 0.26171875 15.0703125 C1.16535156 15.04710937 2.06898438 15.02390625 3 15 C3.33 16.32 3.66 17.64 4 19 C-2.65637843 20.23839599 -9.2471936 20.09139136 -16 20 C-17 17 -17 17 -17 15 C-17.185625 14.154375 -17.37125 13.30875 -17.5625 12.4375 C-17.706875 11.633125 -17.85125 10.82875 -18 10 C-17.67 9.67 -17.34 9.34 -17 9 C-17.515625 8.5875 -18.03125 8.175 -18.5625 7.75 C-19.036875 7.1725 -19.51125 6.595 -20 6 C-19.6875 3.8125 -19.6875 3.8125 -19 2 C-12.65176798 -0.30844801 -6.70518586 -0.19818283 0 0 Z " fill="#FFFFFF" transform="translate(139,270)"/>
<path d="M0 0 C0.66 0.33 1.32 0.66 2 1 C1.34597573 6.01943925 -0.06066493 10.47102098 -1.8125 15.1875 C-2.1847168 16.25387695 -2.1847168 16.25387695 -2.56445312 17.34179688 C-4.02668182 21.29688364 -5.16516597 24.02629873 -9 26 C-12.11189466 26.24895157 -14.19084526 26.40457737 -17 25 C-16.505 23.515 -16.505 23.515 -16 22 C-14.865625 21.87625 -13.73125 21.7525 -12.5625 21.625 C-11.386875 21.41875 -10.21125 21.2125 -9 21 C-8.67 20.34 -8.34 19.68 -8 19 C-8.804375 18.855625 -9.60875 18.71125 -10.4375 18.5625 C-13 18 -13 18 -14 17 C-14.61034645 10.8965355 -13.38592614 7.8907822 -10 3 C-6.85018474 -0.25480911 -4.44203855 -0.38626422 0 0 Z M-4 3 C-7.40843742 5.88406243 -8.86591384 7.3708265 -9.8125 11.8125 C-9.874375 12.864375 -9.93625 13.91625 -10 15 C-8.06890419 15.04289755 -8.06890419 15.04289755 -6 14 C-3.51706682 9.53237584 -3.51706682 9.53237584 -3.3125 4.5625 C-3.539375 4.046875 -3.76625 3.53125 -4 3 Z " fill="#FFFFFF" transform="translate(276,121)"/>
<path d="M0 0 C3.31841288 2.32288902 4.16077071 4.15891208 5 8 C2.17810883 9.35855452 -0.65900545 10.68192103 -3.5 12 C-4.29148437 12.3815625 -5.08296875 12.763125 -5.8984375 13.15625 C-11.20938491 15.59406192 -15.14780439 16.65452188 -21 16 C-23.5 13.625 -23.5 13.625 -25 11 C-25 10.34 -25 9.68 -25 9 C-23.68 8.67 -22.36 8.34 -21 8 C-20.34 9.32 -19.68 10.64 -19 12 C-18.01 11.67 -17.02 11.34 -16 11 C-16.33 10.67 -16.66 10.34 -17 10 C-17.375 7.6875 -17.375 7.6875 -17 5 C-11.94980208 0.08629392 -6.82616902 -0.90110369 0 0 Z M-12 6 C-12.33 6.99 -12.66 7.98 -13 9 C-7.76824163 9.38281159 -4.62197306 8.21854707 0 6 C0 5.34 0 4.68 0 4 C-5.02560414 2.68377035 -7.63636959 3.15856625 -12 6 Z " fill="#FFFFFF" transform="translate(359,175)"/>
<path d="M0 0 C0.66 1.32 1.32 2.64 2 4 C-1.59926342 5.84307955 -5.20517031 7.67276517 -8.8125 9.5 C-9.83666016 10.02464844 -10.86082031 10.54929688 -11.91601562 11.08984375 C-12.89892578 11.58613281 -13.88183594 12.08242187 -14.89453125 12.59375 C-15.80050049 13.05458984 -16.70646973 13.51542969 -17.63989258 13.99023438 C-20 15 -20 15 -23 15 C-23 13.68 -23 12.36 -23 11 C-21.35 10.34 -19.7 9.68 -18 9 C-18 7.68 -18 6.36 -18 5 C-20.97 5 -23.94 5 -27 5 C-27.33 3.68 -27.66 2.36 -28 1 C-18.62087413 0.20177652 -9.41213252 -0.12873737 0 0 Z M-15 4 C-14.67 4.99 -14.34 5.98 -14 7 C-12.02 6.34 -10.04 5.68 -8 5 C-8 4.67 -8 4.34 -8 4 C-10.31 4 -12.62 4 -15 4 Z " fill="#FFFFFF" transform="translate(379,195)"/>
<path d="M0 0 C3.125 1.8125 3.125 1.8125 5 4 C5.3125 6.75 5.3125 6.75 5 9 C7.31 9 9.62 9 12 9 C12.33 10.32 12.66 11.64 13 13 C3.54593406 12.5031058 -5.66048365 11.62220942 -15 10 C-14.7215625 9.0409375 -14.7215625 9.0409375 -14.4375 8.0625 C-14.293125 7.381875 -14.14875 6.70125 -14 6 C-14.33 5.67 -14.66 5.34 -15 5 C-15.04063832 3.33382885 -15.042721 1.66611905 -15 0 C-9.99623748 -3.00225751 -5.2636638 -1.68264662 0 0 Z M-12 3 C-10.13497412 5.62799102 -8.69589209 6.86365751 -5.5078125 7.48828125 C-3.0035728 7.72593573 -0.51346021 7.9040664 2 8 C0.6910428 4.87802522 0.6910428 4.87802522 -2 3 C-3.70702735 2.93003986 -5.41668003 2.91559846 -7.125 2.9375 C-8.03507812 2.94652344 -8.94515625 2.95554687 -9.8828125 2.96484375 C-10.93082031 2.98224609 -10.93082031 2.98224609 -12 3 Z " fill="#FFFFFF" transform="translate(133,255)"/>
<path d="M0 0 C-0.33 1.32 -0.66 2.64 -1 4 C-2.98 4 -4.96 4 -7 4 C-7 6.31 -7 8.62 -7 11 C-5.35 11 -3.7 11 -2 11 C-2 12.32 -2 13.64 -2 15 C-3.98 15 -5.96 15 -8 15 C-8.33 17.97 -8.66 20.94 -9 24 C-5.535 23.505 -5.535 23.505 -2 23 C-2 24.32 -2 25.64 -2 27 C-5.96 27.33 -9.92 27.66 -14 28 C-13.69084217 24.43718112 -13.377805 20.87477563 -13.0625 17.3125 C-12.97548828 16.30509766 -12.88847656 15.29769531 -12.79882812 14.25976562 C-12.71181641 13.28330078 -12.62480469 12.30683594 -12.53515625 11.30078125 C-12.456604 10.40528564 -12.37805176 9.50979004 -12.29711914 8.5871582 C-12.0019537 6.01701177 -11.54387764 3.52813451 -11 1 C-7.32589215 -0.17571451 -3.83070817 -0.07366746 0 0 Z " fill="#FFFFFF" transform="translate(247,112)"/>
<path d="M0 0 C0.556875 0.185625 1.11375 0.37125 1.6875 0.5625 C4.05608681 1.16536239 4.05608681 1.16536239 6.625 0.4375 C7.40875 0.293125 8.1925 0.14875 9 0 C11 2 11 2 11.3125 4.9375 C11.19142829 10.1325771 9.49952795 15.06405382 8 20 C6.68 20 5.36 20 4 20 C4.31045732 18.0830014 4.62344671 16.16641277 4.9375 14.25 C5.11152344 13.18265625 5.28554687 12.1153125 5.46484375 11.015625 C5.88704171 8.63652407 6.37202884 6.33084789 7 4 C3.33725934 7.11787015 2.26421831 9.58459578 1.25 14.25 C1.00765625 15.32765625 0.7653125 16.4053125 0.515625 17.515625 C0.34546875 18.33546875 0.1753125 19.1553125 0 20 C-1.32 20 -2.64 20 -4 20 C-2.07289294 6.3667426 -2.07289294 6.3667426 0 0 Z " fill="#FFFFFF" transform="translate(250,119)"/>
<path d="M0 0 C5.26270681 0.4385589 8.30738649 1.94581351 12.125 5.5625 C14.16051221 9.00721298 14.05860339 11.37780676 13.75 15.3125 C9.58326479 17.10591438 6.00336659 15.32423384 2 13.875 C1.30261719 13.63201172 0.60523438 13.38902344 -0.11328125 13.13867188 C-1.82885098 12.53939752 -3.53989715 11.92720115 -5.25 11.3125 C-5.30399736 9.85457116 -5.34279177 8.39607288 -5.375 6.9375 C-5.40980469 5.71933594 -5.40980469 5.71933594 -5.4453125 4.4765625 C-5.10223993 0.67531838 -3.60417975 0.34655575 0 0 Z M-1.25 4.3125 C-0.21706853 7.13822058 0.42952982 8.14228305 3.1328125 9.578125 C4.49019531 10.06539063 4.49019531 10.06539063 5.875 10.5625 C7.24011719 11.06523437 7.24011719 11.06523437 8.6328125 11.578125 C9.33148438 11.82046875 10.03015625 12.0628125 10.75 12.3125 C10.14830623 8.90290197 9.86425606 8.40598223 7 6.0625 C3.79323897 4.33578252 2.29563138 3.8953669 -1.25 4.3125 Z " fill="#FFFFFF" transform="translate(368.25,264.6875)"/>
<path d="M0 0 C3.07500207 0.31846371 4.5848681 0.55488115 6.73046875 2.85546875 C9.40687908 7.13916035 11.73093907 11.05066238 13 16 C11.68 16.33 10.36 16.66 9 17 C7.99491199 15.21118264 6.99607264 13.41885304 6 11.625 C5.1646875 10.12839844 5.1646875 10.12839844 4.3125 8.6015625 C3 6 3 6 3 4 C2.34 4 1.68 4 1 4 C1.39756467 9.16834065 3.32974321 12.69656942 5.94140625 17.046875 C7 19 7 19 7 21 C5.68 21.33 4.36 21.66 3 22 C1.65590238 19.75583701 0.32470104 17.50557204 -1 15.25 C-1.3815625 14.61578125 -1.763125 13.9815625 -2.15625 13.328125 C-4.17915652 9.86028524 -5 8.10651746 -5 4 C-4.01 4 -3.02 4 -2 4 C-1.34 2.68 -0.68 1.36 0 0 Z " fill="#FFFFFF" transform="translate(170,146)"/>
<path d="M0 0 C1.258125 0.12375 2.51625 0.2475 3.8125 0.375 C4.87404297 0.47941406 4.87404297 0.47941406 5.95703125 0.5859375 C8 1 8 1 11 3 C10.68381875 9.00744377 7.86164281 14.46342405 4 19 C1.296875 19.79296875 1.296875 19.79296875 -1 20 C0.36591169 16.45756548 1.90931484 13.07372071 3.625 9.6875 C4.07101562 8.80449219 4.51703125 7.92148438 4.9765625 7.01171875 C5.31429688 6.34785156 5.65203125 5.68398437 6 5 C2.10536922 6.47523893 0.84929963 8.47051507 -1.125 12.0625 C-3.80555556 16.90277778 -3.80555556 16.90277778 -6 18 C-6.66 17.67 -7.32 17.34 -8 17 C-7.30150228 13.0254496 -5.37107231 9.73425902 -3.4375 6.25 C-3.10814453 5.64800781 -2.77878906 5.04601562 -2.43945312 4.42578125 C-1.6303535 2.94829497 -0.81572338 1.47383964 0 0 Z " fill="#FFFFFF" transform="translate(290,126)"/>
<path d="M0 0 C3.67793249 1.56525964 6.21212508 3.85396108 9.125 6.5625 C12.31507509 9.63719186 12.31507509 9.63719186 16 12 C15.67 12.99 15.34 13.98 15 15 C14.34 15 13.68 15 13 15 C12.67 16.65 12.34 18.3 12 20 C9.75390625 20.703125 9.75390625 20.703125 7 21 C4.90234375 19.671875 4.90234375 19.671875 2.9375 17.75 C0.38851899 15.30701622 -2.13402633 13.06809681 -5 11 C-4.67 9.68 -4.34 8.36 -4 7 C-0.47761953 8.56367357 2.27123994 10.69495889 5.25 13.125 C6.14203125 13.84945313 7.0340625 14.57390625 7.953125 15.3203125 C8.62859375 15.87460937 9.3040625 16.42890625 10 17 C7.68582106 11.06991645 3.83283349 7.88004209 -1 4 C-0.67 2.68 -0.34 1.36 0 0 Z " fill="#FFFFFF" transform="translate(351,306)"/>
<path d="M0 0 C8.91 1.98 8.91 1.98 18 4 C19.08858381 8.35433524 18.99267284 10.6984177 18 15 C17.67 15.33 17.34 15.66 17 16 C10.65953874 15.94338874 4.8848583 14.21203894 -1 12 C-1 10.68 -1 9.36 -1 8 C4.28 9.32 9.56 10.64 15 12 C14.67 11.01 14.34 10.02 14 9 C11.4657993 7.95995231 9.04814798 7.10021603 6.4375 6.3125 C5.72658203 6.08755859 5.01566406 5.86261719 4.28320312 5.63085938 C2.52551181 5.07641983 0.76315902 4.53679811 -1 4 C-0.67 2.68 -0.34 1.36 0 0 Z " fill="#FFFFFF" transform="translate(119,236)"/>
<path d="M0 0 C0 0.99 0 1.98 0 3 C1.32 3.33 2.64 3.66 4 4 C4.33 5.65 4.66 7.3 5 9 C2.096309 11.44998929 -0.9068208 13.70084924 -4.0625 15.8125 C-4.71347656 16.25207031 -5.36445313 16.69164062 -6.03515625 17.14453125 C-8.45033111 18.19606862 -9.56932648 17.88240486 -12 17 C-10.68374806 13.05124418 -8.94634602 12.45007287 -5.4375 10.3125 C-4.42558594 9.68988281 -3.41367187 9.06726563 -2.37109375 8.42578125 C-1.58863281 7.95527344 -0.80617188 7.48476562 0 7 C-6.31631828 7.40316925 -10.64993984 9.71232131 -16 13 C-16.66 11.68 -17.32 10.36 -18 9 C-15.56721456 7.49185257 -13.12933973 5.99335653 -10.6875 4.5 C-9.99720703 4.07074219 -9.30691406 3.64148438 -8.59570312 3.19921875 C-7.92861328 2.79316406 -7.26152344 2.38710937 -6.57421875 1.96875 C-5.96151123 1.59169922 -5.34880371 1.21464844 -4.7175293 0.82617188 C-3 0 -3 0 0 0 Z " fill="#FFFFFF" transform="translate(348,160)"/>
<path d="M0 0 C5.71624457 0 8.57063152 1.83463459 12.6171875 5.52734375 C14.71966356 7.76642136 14.99246884 8.8795014 15.1875 12 C15 15 15 15 13 17 C9.78345719 17.61267482 7.75693963 17.4333409 4.8984375 15.796875 C1.33195978 13.22901104 -1.39257484 11.20274704 -3 7 C-2.68097423 3.65022937 -2.40820361 2.40820361 0 0 Z M1 4 C1.25317219 7.41782456 2.28374624 8.27744077 4.8125 10.75 C7.89437487 13.38445547 7.89437487 13.38445547 12 13 C10.99056513 9.36603447 10.08394242 8.06608233 7.0625 5.6875 C4.1448559 3.75869762 4.1448559 3.75869762 1 4 Z " fill="#FFFFFF" transform="translate(357,295)"/>
<path d="M0 0 C3 2 3 2 5 4 C4.9375 6.8125 4.9375 6.8125 4 10 C-0.68785787 12.81271472 -4.48336945 13.61295895 -10 13 C-12.875 11.8125 -12.875 11.8125 -15 10 C-15.8125 7.3125 -15.8125 7.3125 -16 5 C-10.90910496 0.73465551 -6.73408937 -1.00880327 0 0 Z M-12 6 C-11.67 6.99 -11.34 7.98 -11 9 C-4.68731397 9.37552165 -4.68731397 9.37552165 1 7 C0.67 6.01 0.34 5.02 0 4 C-4.54805635 3.82164485 -7.8794254 4.00214565 -12 6 Z " fill="#FFFFFF" transform="translate(142,292)"/>
<path d="M0 0 C3.02286884 1.38548155 4.66871425 2.66871425 7 5 C7.4375 7.4375 7.4375 7.4375 7 10 C4.19801811 12.46234772 2.26943558 12.97060703 -1.4375 13.375 C-6.23900009 12.86957894 -9.58070932 11.41929068 -13 8 C-13.3125 5 -13.3125 5 -13 2 C-8.75400418 -0.83066388 -4.98561012 -0.53360364 0 0 Z M-9 4 C-9.33 4.99 -9.66 5.98 -10 7 C-5.23947038 8.97387813 -2.03511899 9.0070238 3 8 C2.67 7.01 2.34 6.02 2 5 C-0.40545638 3.79727181 -1.94996953 3.89928528 -4.625 3.9375 C-5.44226563 3.94652344 -6.25953125 3.95554688 -7.1015625 3.96484375 C-7.72804688 3.97644531 -8.35453125 3.98804688 -9 4 Z " fill="#FFFFFF" transform="translate(377,232)"/>
<path d="M0 0 C1.32 0.33 2.64 0.66 4 1 C3.34 3.64 2.68 6.28 2 9 C2.96421875 8.95359375 3.9284375 8.9071875 4.921875 8.859375 C6.18515625 8.82328125 7.4484375 8.7871875 8.75 8.75 C10.00296875 8.70359375 11.2559375 8.6571875 12.546875 8.609375 C16 9 16 9 18.39453125 10.83203125 C20.47862442 13.64631764 20.92864647 15.5036772 21 19 C19.5625 21.875 19.5625 21.875 18 24 C16.68 23.67 15.36 23.34 14 23 C14.350625 22.443125 14.70125 21.88625 15.0625 21.3125 C16.22315134 18.44956002 15.69931438 16.94885713 15 14 C14.19175781 14.04640625 13.38351563 14.0928125 12.55078125 14.140625 C3.90022993 14.43280285 3.90022993 14.43280285 -0.25 12.4375 C-2.63695724 9.11280956 -2.50969658 7.00475881 -2 3 C-1.34 2.01 -0.68 1.02 0 0 Z " fill="#FFFFFF" transform="translate(131,179)"/>
<path d="M0 0 C2.25 0.875 2.25 0.875 4.25 2.875 C4.09491045 5.89924622 3.65750539 7.42047475 1.625 9.6875 C-1.5813755 11.29068775 -4.21750852 11.07879759 -7.75 10.875 C-7.75 11.865 -7.75 12.855 -7.75 13.875 C-6.43 14.205 -5.11 14.535 -3.75 14.875 C-4.08 16.195 -4.41 17.515 -4.75 18.875 C-11.625 17 -11.625 17 -12.75 15.875 C-13.18891739 12.10031041 -12.89352357 10.15100686 -11.125 6.75 C-7.99568098 2.96187698 -5.16909062 -0.23495866 0 0 Z M-4.4375 5.375 C-4.870625 5.87 -5.30375 6.365 -5.75 6.875 C-4.1 6.875 -2.45 6.875 -0.75 6.875 C-0.42 5.885 -0.09 4.895 0.25 3.875 C-2.75259517 3.54281808 -2.75259517 3.54281808 -4.4375 5.375 Z " fill="#FFFFFF" transform="translate(310.75,133.125)"/>
<path d="M0 0 C0.47840532 5.3820598 0.47840532 5.3820598 -1.5 7.9375 C-5.25937383 9.53523388 -8.01265807 8.73101269 -12 8 C-12.33 8.99 -12.66 9.98 -13 11 C-11.68 11.66 -10.36 12.32 -9 13 C-9.33 13.99 -9.66 14.98 -10 16 C-12.64168921 15.64301497 -14.60890736 15.247692 -16.875 13.8125 C-18 12 -18 12 -18.1875 9.25 C-16.44865489 4.49105548 -13.0822854 1.88301479 -9 -1 C-5.23375329 -2.25541557 -3.62811066 -1.37061958 0 0 Z M-9 3 C-9 3.66 -9 4.32 -9 5 C-7.35 4.67 -5.7 4.34 -4 4 C-4 3.34 -4 2.68 -4 2 C-6.9254644 1.7763932 -6.9254644 1.7763932 -9 3 Z " fill="#FFFFFF" transform="translate(327,142)"/>
<path d="M0 0 C1.32 0 2.64 0 4 0 C5.48400777 2.35695352 6.01570001 3.68599981 5.875 6.5 C4.34845455 10.86155843 1.83607226 12.53179954 -2.125 14.75 C-6.66227496 16.5063645 -11.21579341 16.84843073 -16 16 C-18.76439633 14.62053886 -19.9179509 13.4107937 -22 11 C-22 9.68 -22 8.36 -22 7 C-20.125 7.3125 -20.125 7.3125 -18 8 C-17.01 9.485 -17.01 9.485 -16 11 C-10.38483145 12.14549439 -5.8803425 10.85678586 -1 8 C-0.34 8 0.32 8 1 8 C0.7525 6.8553125 0.7525 6.8553125 0.5 5.6875 C0 3 0 3 0 0 Z " fill="#FFFFFF" transform="translate(146,303)"/>
<path d="M0 0 C3.125 0.75 3.125 0.75 6 2 C7.4783226 4.95664519 7.06032783 7.74229737 7 11 C8.32 11 9.64 11 11 11 C11.33 9.35 11.66 7.7 12 6 C13.32 6.33 14.64 6.66 16 7 C15.6875 10.375 15.6875 10.375 15 14 C12 16 12 16 8.6875 15.875 C3.79390172 14.71380719 0.53260893 12.53260893 -3 9 C-3.3125 5.5 -3.3125 5.5 -3 2 C-2.01 1.34 -1.02 0.68 0 0 Z M0 4 C0.26676204 5.98491642 0.26676204 5.98491642 1 8 C1.99 8.33 2.98 8.66 4 9 C3.73323796 7.01508358 3.73323796 7.01508358 3 5 C2.01 4.67 1.02 4.34 0 4 Z " fill="#FFFFFF" transform="translate(126,212)"/>
<path d="M0 0 C1.2375 0.1546875 1.2375 0.1546875 2.5 0.3125 C4.5 3.3125 4.5 3.3125 4.3125 6.875 C3.5 10.3125 3.5 10.3125 0.5 12.3125 C0.5 13.3025 0.5 14.2925 0.5 15.3125 C3.965 14.8175 3.965 14.8175 7.5 14.3125 C7.1875 16.1875 7.1875 16.1875 6.5 18.3125 C3.5 20.3125 3.5 20.3125 0.5 20.25 C-2.5 19.3125 -2.5 19.3125 -4.3125 17.1875 C-6.12071625 12.80971329 -7.02256584 9.12138174 -5.6875 4.5 C-4.11357218 1.60065929 -3.34986068 0.41873258 0 0 Z M-1.5 4.3125 C-1.83 5.9625 -2.16 7.6125 -2.5 9.3125 C-1.51 8.9825 -0.52 8.6525 0.5 8.3125 C0.5 6.9925 0.5 5.6725 0.5 4.3125 C-0.16 4.3125 -0.82 4.3125 -1.5 4.3125 Z " fill="#FFFFFF" transform="translate(195.5,131.6875)"/>
<path d="M0 0 C2.4375 0.875 2.4375 0.875 4.4375 3.875 C4.07415224 7.29046894 3.32962913 10.56137751 2.4375 13.875 C3.7575 14.205 5.0775 14.535 6.4375 14.875 C6.7675 13.885 7.0975 12.895 7.4375 11.875 C8.4275 11.875 9.4175 11.875 10.4375 11.875 C9.6875 16.625 9.6875 16.625 7.4375 18.875 C4.625 19.3125 4.625 19.3125 1.4375 18.875 C-1.73412014 16.20795579 -5.19952406 13.21313074 -5.86328125 8.9375 C-5.89445144 3.45154723 -5.89445144 3.45154723 -4.375 0.8125 C-2.5625 -0.125 -2.5625 -0.125 0 0 Z M-2.5625 3.875 C-2.2325 5.855 -1.9025 7.835 -1.5625 9.875 C-0.9025 9.545 -0.2425 9.215 0.4375 8.875 C0.1075 7.225 -0.2225 5.575 -0.5625 3.875 C-1.2225 3.875 -1.8825 3.875 -2.5625 3.875 Z " fill="#FFFFFF" transform="translate(161.5625,156.125)"/>
<path d="M0 0 C5.05213988 0.39624626 8.5196556 1.7598278 13 4 C15.75146274 4.25284367 15.75146274 4.25284367 18 4 C18.33 4.99 18.66 5.98 19 7 C19.66 7.33 20.32 7.66 21 8 C21 9.32 21 10.64 21 12 C19.68 12 18.36 12 17 12 C16.34 12.66 15.68 13.32 15 14 C14.34 13.67 13.68 13.34 13 13 C12.89816406 12.37609375 12.79632813 11.7521875 12.69140625 11.109375 C12.16879913 8.76996916 12.16879913 8.76996916 9.71484375 7.515625 C8.79832031 7.09796875 7.88179688 6.6803125 6.9375 6.25 C6.01839844 5.82203125 5.09929687 5.3940625 4.15234375 4.953125 C3.44207031 4.63859375 2.73179687 4.3240625 2 4 C2 4.66 2 5.32 2 6 C0.68 5.67 -0.64 5.34 -2 5 C-1.125 1.125 -1.125 1.125 0 0 Z " fill="#FFFFFF" transform="translate(362,280)"/>
<path d="M0 0 C0.99 0.33 1.98 0.66 3 1 C3 2.32 3 3.64 3 5 C3.86625 5.12375 4.7325 5.2475 5.625 5.375 C8.89513853 5.98058121 11.87256899 6.88306035 15 8 C15 7.34 15 6.68 15 6 C15.99 6.33 16.98 6.66 18 7 C18 8.65 18 10.3 18 12 C13.3493517 13.7508323 10.09482441 11.64788125 5.75390625 9.8125 C2.70752034 8.91370813 1.01454587 9.12463278 -2 10 C-3.41377341 7.36095629 -4.37240135 4.92879371 -5 2 C-2.525 2.495 -2.525 2.495 0 3 C0 2.01 0 1.02 0 0 Z " fill="#FFFFFF" transform="translate(121,224)"/>
<path d="M0 0 C2.8125 1 2.8125 1 4.8125 4 C4.9375 6.6875 4.9375 6.6875 4.8125 9 C3.4925 9 2.1725 9 0.8125 9 C0.8125 7.35 0.8125 5.7 0.8125 4 C-1.75186322 5.09901281 -3.19189032 6.00497569 -5.0625 8.125 C-7.1875 10 -7.1875 10 -10.25 10.5 C-13.1875 10 -13.1875 10 -15.0625 8.3125 C-16.34935671 5.66729453 -16.42963848 3.90566174 -16.1875 1 C-14.8675 1 -13.5475 1 -12.1875 1 C-12.1875 2.65 -12.1875 4.3 -12.1875 6 C-8.89328695 5.63397633 -8.1143621 4.91916338 -5.8125 2.375 C-3.1875 0 -3.1875 0 0 0 Z " fill="#FFFFFF" transform="translate(377.1875,220)"/>
<path d="M0 0 C2.9375 0.5 2.9375 0.5 4.8125 1.6875 C6.28531139 4.06036279 6.15973194 5.75913944 5.9375 8.5 C4.9475 8.5 3.9575 8.5 2.9375 8.5 C2.6075 7.18 2.2775 5.86 1.9375 4.5 C0.6175 4.5 -0.7025 4.5 -2.0625 4.5 C-2.26875 5.28375 -2.475 6.0675 -2.6875 6.875 C-4.0625 9.5 -4.0625 9.5 -6.875 11.0625 C-10.0625 11.5 -10.0625 11.5 -12.9375 9.9375 C-15.0625 7.5 -15.0625 7.5 -15.375 4.75 C-15.271875 4.0075 -15.16875 3.265 -15.0625 2.5 C-13.125 2.8125 -13.125 2.8125 -11.0625 3.5 C-10.7325 4.49 -10.4025 5.48 -10.0625 6.5 C-6.87057544 5.76486376 -6.87057544 5.76486376 -5.25 2.9375 C-3.0625 0.5 -3.0625 0.5 0 0 Z " fill="#FFFFFF" transform="translate(373.0625,208.5)"/>
<path d="M0 0 C0.99 0.33 1.98 0.66 3 1 C2.773125 1.70125 2.54625 2.4025 2.3125 3.125 C1.88815577 7.02896694 2.78814142 8.78923755 5 12 C8.06361777 13.43968727 8.06361777 13.43968727 11 14 C11.33 13.01 11.66 12.02 12 11 C12.99 11.33 13.98 11.66 15 12 C14.07710056 15.18819807 13.51737898 16.66440282 10.6875 18.5 C8 19 8 19 5.5 18 C1.19143971 14.55315177 -1.7680086 11.9553561 -2.4375 6.3125 C-2 3 -2 3 0 0 Z " fill="#FFFFFF" transform="translate(145,171)"/>
<path d="M0 0 C1.82904938 2.74357407 2.20387288 4.99260165 2.5 8.25 C1.51 8.745 1.51 8.745 0.5 9.25 C-2.27982621 7.8600869 -2.37463341 6.06341647 -3.5 3.25 C-5.78705831 2.10647084 -7.09264762 2.14665561 -9.625 2.1875 C-10.90375 2.208125 -12.1825 2.22875 -13.5 2.25 C-13.5 3.57 -13.5 4.89 -13.5 6.25 C-14.82 6.25 -16.14 6.25 -17.5 6.25 C-17.625 2.875 -17.625 2.875 -17.5 -0.75 C-12.61817762 -5.63182238 -5.18657369 -3.63060158 0 0 Z " fill="#FFFFFF" transform="translate(382.5,249.75)"/>
<path d="M0 0 C1.32 0.33 2.64 0.66 4 1 C3.67 1.99 3.34 2.98 3 4 C2.34 4 1.68 4 1 4 C1.66264086 10.06264222 1.66264086 10.06264222 3 16 C4.98 15.67 6.96 15.34 9 15 C9 16.32 9 17.64 9 19 C8 20 8 20 5.1875 20.3125 C2 20 2 20 -0.3125 18.1875 C-3.60993127 13.91305205 -3.56209571 9.19001706 -3 4 C-1.5 1.4375 -1.5 1.4375 0 0 Z " fill="#FFFFFF" transform="translate(183,137)"/>
<path d="M0 0 C1.875 0.125 1.875 0.125 4 1 C4.309375 2.3303125 4.309375 2.3303125 4.625 3.6875 C6.76296824 8.83805985 11.20204004 10.50364445 16 13 C15.67 14.32 15.34 15.64 15 17 C11.01518299 15.51401073 7.38468256 13.66163296 3.6875 11.5625 C2.61886719 10.96566406 1.55023438 10.36882812 0.44921875 9.75390625 C-0.35902344 9.17511719 -1.16726562 8.59632813 -2 8 C-2 7.01 -2 6.02 -2 5 C-1.34 5 -0.68 5 0 5 C0 3.35 0 1.7 0 0 Z " fill="#FFFFFF" transform="translate(128,200)"/>
<path d="M0 0 C0.99 0.33 1.98 0.66 3 1 C3 1.66 3 2.32 3 3 C4.32 3.33 5.64 3.66 7 4 C6.67 4.99 6.34 5.98 6 7 C4.5459375 7.0309375 4.5459375 7.0309375 3.0625 7.0625 C-1.65451153 7.66773773 -4.52107026 10.53786985 -7.984375 13.6015625 C-8.64953125 14.06304687 -9.3146875 14.52453125 -10 15 C-10.99 14.67 -11.98 14.34 -13 14 C-11.43416404 9.96278439 -8.55826135 7.52929418 -5.375 4.75 C-4.859375 4.29109375 -4.34375 3.8321875 -3.8125 3.359375 C-2.5465398 2.23407704 -1.27392058 1.11627823 0 0 Z " fill="#FFFFFF" transform="translate(331,147)"/>
<path d="M0 0 C1 1 1 1 1.25 3.375 C1 6 1 6 -0.1875 7.8125 C-2.67237266 9.44052002 -4.08711432 9.50975499 -7 9 C-8.875 7.3125 -8.875 7.3125 -10 5 C-9.9375 2.375 -9.9375 2.375 -9 0 C-5.68088138 -2.72641887 -3.62348217 -1.86070706 0 0 Z " fill="#FFFFFF" transform="translate(190,60)"/>
<path d="M0 0 C2.375 0.875 2.375 0.875 4.375 3.875 C4.1875 6.4375 4.1875 6.4375 3.375 8.875 C0.375 10.875 0.375 10.875 -2.1875 10.625 C-4.625 9.875 -4.625 9.875 -6.625 7.875 C-7 5.4375 -7 5.4375 -6.625 2.875 C-4.39928105 0.40197895 -3.34204055 -0.15914479 0 0 Z " fill="#FFFFFF" transform="translate(174.625,424.125)"/>
<path d="M0 0 C2.4375 0.8125 2.4375 0.8125 4.4375 3.8125 C4.1133631 7.13490324 3.82973697 8.42026303 1.4375 10.8125 C-1.5625 10.625 -1.5625 10.625 -4.5625 9.8125 C-6.5625 6.8125 -6.5625 6.8125 -6.375 4.25 C-5.20805875 0.74917625 -3.68035317 -0.26929413 0 0 Z " fill="#FFFFFF" transform="translate(68.5625,320.1875)"/>
<path d="M0 0 C3.125 0.25 3.125 0.25 5.0625 1.4375 C6.125 3.25 6.125 3.25 5.9375 5.8125 C5.125 8.25 5.125 8.25 3.125 10.25 C0.29113833 10.6133156 -1.28022151 10.6068671 -3.75 9.125 C-4.875 7.25 -4.875 7.25 -4.625 4.125 C-3.63128627 0.31576402 -3.63128627 0.31576402 0 0 Z " fill="#FFFFFF" transform="translate(335.875,74.75)"/>
<path d="M0 0 C2.5625 0.3125 2.5625 0.3125 4.4375 1.4375 C6.11540631 4.23401052 5.31125648 6.24940532 4.5625 9.3125 C-1.84944487 10.64328101 -1.84944487 10.64328101 -4.4375 9.1875 C-5.4375 7.3125 -5.4375 7.3125 -5.25 4.75 C-4.18108204 1.54324612 -3.41484064 0.43780008 0 0 Z " fill="#FFFFFF" transform="translate(323.4375,428.6875)"/>
<path d="M0 0 C3.0625 0.1875 3.0625 0.1875 5.0625 2.1875 C4.6875 5.8125 4.6875 5.8125 4.0625 9.1875 C1.7525 9.5175 -0.5575 9.8475 -2.9375 10.1875 C-4.5625 8.5 -4.5625 8.5 -5.9375 6.1875 C-4.28712217 0.2736461 -4.28712217 0.2736461 0 0 Z " fill="#FFFFFF" transform="translate(431.9375,324.8125)"/>
<path d="M0 0 C3 0.25 3 0.25 5 2.25 C5.25 5.25 5.25 5.25 5 8.25 C4.34 8.91 3.68 9.57 3 10.25 C-3.57692308 9.67307692 -3.57692308 9.67307692 -5 8.25 C-5.1875 5.3125 -5.1875 5.3125 -5 2.25 C-3 0.25 -3 0.25 0 0 Z " fill="#FFFFFF" transform="translate(441,176.75)"/>
<path d="M0 0 C2 2 2 2 2.25 5 C2 8 2 8 0 10 C-3 10.25 -3 10.25 -6 10 C-6.66 9.34 -7.32 8.68 -8 8 C-7.75 4.4375 -7.75 4.4375 -7 1 C-4.48718205 -0.25640898 -2.78302919 -0.20872719 0 0 Z " fill="#FFFFFF" transform="translate(75,166)"/>
<path d="M0 0 C1.32 0.66 2.64 1.32 4 2 C1.36 7.61 -1.28 13.22 -4 19 C-5.32 19 -6.64 19 -8 19 C-7.38188466 14.44684052 -5.53234107 10.71540233 -3.4375 6.6875 C-2.9434668 5.71973633 -2.9434668 5.71973633 -2.43945312 4.73242188 C-1.63175745 3.15214772 -0.81662387 1.57567895 0 0 Z " fill="#FFFFFF" transform="translate(283,123)"/>
<path d="M0 0 C3.81819772 0.31296703 5.55130601 2.33455815 7.95507812 5.15820312 C8.40302734 5.70412109 8.85097656 6.25003906 9.3125 6.8125 C9.77978516 7.34681641 10.24707031 7.88113281 10.72851562 8.43164062 C14.05025291 12.4206693 14.05025291 12.4206693 13.79296875 15.38671875 C13.53128906 15.91910156 13.26960937 16.45148438 13 17 C9.01309998 15.44547476 6.93128638 12.89336542 4.25 9.625 C3.05117187 8.19027344 3.05117187 8.19027344 1.828125 6.7265625 C0 4 0 4 0 0 Z " fill="#FFFFFF" transform="translate(149,166)"/>
<path d="M0 0 C4.53847198 1.34927545 8.31932246 3.19159348 12.375 5.625 C13.43460937 6.25664062 14.49421875 6.88828125 15.5859375 7.5390625 C16.38257813 8.02117187 17.17921875 8.50328125 18 9 C17.67 10.32 17.34 11.64 17 13 C13.03363329 11.51353233 9.38379836 9.69203865 5.6875 7.625 C4.61886719 7.03976562 3.55023438 6.45453125 2.44921875 5.8515625 C1.23685547 4.93503906 1.23685547 4.93503906 0 4 C0 2.68 0 1.36 0 0 Z " fill="#FFFFFF" transform="translate(359,287)"/>
<path d="M0 0 C8.91 1.98 8.91 1.98 18 4 C18.33 5.65 18.66 7.3 19 9 C16.20760027 8.35720991 13.41609416 7.71091335 10.625 7.0625 C9.8309375 6.88009766 9.036875 6.69769531 8.21875 6.50976562 C7.45820313 6.33251953 6.69765625 6.15527344 5.9140625 5.97265625 C5.2123291 5.81031494 4.5105957 5.64797363 3.78759766 5.48071289 C2 5 2 5 0 4 C0 2.68 0 1.36 0 0 Z " fill="#FFFFFF" transform="translate(365,257)"/>
<path d="M0 0 C0.80050781 0.37705078 0.80050781 0.37705078 1.6171875 0.76171875 C0.32357502 4.6425562 -2.07603215 6.07676112 -5.2578125 8.38671875 C-5.80050781 8.7940625 -6.34320313 9.20140625 -6.90234375 9.62109375 C-9.38601446 11.45500219 -11.43395754 12.7787671 -14.3828125 13.76171875 C-15.0428125 13.43171875 -15.7028125 13.10171875 -16.3828125 12.76171875 C-14.85079801 8.64797612 -11.91747838 6.48807069 -8.5078125 3.94921875 C-7.97800781 3.52962891 -7.44820313 3.11003906 -6.90234375 2.67773438 C-2.9544339 -0.29544339 -2.9544339 -0.29544339 0 0 Z " fill="#FFFFFF" transform="translate(341.3828125,154.23828125)"/>
<path d="M0 0 C2.0625 0.4375 2.0625 0.4375 4 1 C4 1.99 4 2.98 4 4 C2.68 4.33 1.36 4.66 0 5 C-0.5625 3.0625 -0.5625 3.0625 -1 1 C-0.67 0.67 -0.34 0.34 0 0 Z " fill="#FFFFFF" transform="translate(344,150)"/>
<path d="M0 0 C1.98 0.495 1.98 0.495 4 1 C3.67 2.32 3.34 3.64 3 5 C1.68 4.34 0.36 3.68 -1 3 C-0.67 2.01 -0.34 1.02 0 0 Z " fill="#FFFFFF" transform="translate(378,298)"/>
<path d="M0 0 C1.98 0.495 1.98 0.495 4 1 C3.67 2.32 3.34 3.64 3 5 C1.68 4.34 0.36 3.68 -1 3 C-0.67 2.01 -0.34 1.02 0 0 Z " fill="#FFFFFF" transform="translate(145,161)"/>
<path d="M0 0 C0.99 0.33 1.98 0.66 3 1 C2.67 2.32 2.34 3.64 2 5 C0.68 4.67 -0.64 4.34 -2 4 C-1.34 2.68 -0.68 1.36 0 0 Z " fill="#FFFFFF" transform="translate(286,117)"/>
<path d="M0 0 C1.32 0 2.64 0 4 0 C4 1.32 4 2.64 4 4 C2.35 3.67 0.7 3.34 -1 3 C-0.67 2.01 -0.34 1.02 0 0 Z " fill="#FFFFFF" transform="translate(386,263)"/>
<path d="M0 0 C0.33 0.66 0.66 1.32 1 2 C0.34 1.67 -0.32 1.34 -1 1 C-0.67 0.67 -0.34 0.34 0 0 Z " fill="#FFFFFF" transform="translate(255,482)"/>
<path d="M0 0 C0.66 0.66 1.32 1.32 2 2 C1.34 2 0.68 2 0 2 C0 1.34 0 0.68 0 0 Z " fill="#FFFFFF" transform="translate(487,253)"/>
<path d="M0 0 C3 1 3 1 3 1 Z " fill="#FFFFFF" transform="translate(416,88)"/>
<path d="M0 0 C0.33 0.66 0.66 1.32 1 2 C0.34 1.67 -0.32 1.34 -1 1 C-0.67 0.67 -0.34 0.34 0 0 Z " fill="#FFFFFF" transform="translate(257,16)"/>
<path d="M0 0 C2 1 2 1 2 1 Z " fill="#FFFFFF" transform="translate(88,418)"/>
<path d="" fill="#FFFFFF" transform="translate(0,0)"/>
<path d="" fill="#FFFFFF" transform="translate(0,0)"/>
</svg>
